<?xml version="1.0" encoding="UTF-8"?>
<svg width="210mm" height="297mm" version="1.1" viewBox="0 0 210 297" xmlns="http://www.w3.org/2000/svg" xmlns:cc="http://creativecommons.org/ns#" xmlns:dc="http://purl.org/dc/elements/1.1/" xmlns:rdf="http://www.w3.org/1999/02/22-rdf-syntax-ns#">
<metadata>
<rdf:RDF>
<cc:Work rdf:about="">
<dc:format>image/svg+xml</dc:format>
<dc:type rdf:resource="http://purl.org/dc/dcmitype/StillImage"/>
<dc:title/>
</cc:Work>
</rdf:RDF>
</metadata>
<g transform="matrix(.85034 0 0 1.2755 54.168 65.632)" stroke-width=".25405">
<path class="st0" d="m52 42c1.1 0 2 0.9 2 2h3.9c0-3.2-2.6-5.9-5.9-5.9-3.2 0-5.9 2.6-5.9 5.9h3.9c0.1-1.1 1-2 2-2z"/>
<path class="st0" d="m67.7 42c1.1 0 2 0.9 2 2h3.9c0-3.2-2.6-5.9-5.9-5.9-3.2 0-5.9 2.6-5.9 5.9h3.9c0.1-1.1 0.9-2 2-2z"/>
<path class="st0" d="m106.9 89.1c0-16.2-13.2-29.4-29.4-29.4h-2.1c0.7-0.6 1.4-1.3 2-2h2.1c5.4 0 9.8-4.4 9.8-9.8v-3.5c2.4-1.6 3.9-4.3 3.9-7.3 0-3.1-1.6-5.8-3.9-7.3-0.3-16-13.3-28.9-29.4-29s-29.1 13-29.4 29c-2.4 1.6-3.9 4.3-4 7.3 0 4.9 4 8.8 8.8 8.8h1.3c0.9 5.4 3.7 10.2 7.7 13.7h-2.1c-16.2 0-29.4 13.2-29.4 29.4v25.5h-11.8v3.9h117.6v-3.9h-11.8zm-47-23.5c2.1 0 4.1-0.3 6.1-0.8l-6.1 12.1-6.1-12.1c1.9 0.5 4 0.8 6.1 0.8zm14.4-2-7.9 15.7h-3.5l7.9-15.7zm11.1-15.7c0 3-2.2 5.4-5.1 5.8 1.4-2.4 2.3-5 2.8-7.8h1.3c0.3 0 0.7-0.1 1-0.1zm-1-5.9h-1v-9.8h1c2.7 0 4.9 2.2 4.9 4.9s-2.2 4.9-4.9 4.9zm-24.5-37.2c13.4 0 24.4 10.5 25.4 23.6-0.3 0-0.6-0.1-0.9-0.1h-1.3c-1.9-11.1-11.6-19.6-23.2-19.6s-21.3 8.5-23.2 19.6h-1.3c-0.3 0-0.6 0.1-0.9 0.1 1-13.2 12-23.6 25.4-23.6zm19.6 27.4c-14.2-0.5-23.5-6.3-23.5-11.8 0-1.1-0.9-2-2-2s-2 0.9-2 2c0 4.9-5.1 9-11.7 9.7 1.1-9.8 9.4-17.5 19.5-17.5 10.9 0 19.7 8.8 19.7 19.6zm-44.1 9.8c-2.7 0-4.9-2.2-4.9-4.9s2.2-4.9 4.9-4.9h1v9.8zm4.9 0v-8c6.1-0.5 11.3-3.5 13.9-7.6 4.1 5.4 13.7 9.3 25.3 9.7v5.9c0 4.4-1.5 8.5-4 11.8h-15.7v3.9h11.7c-1.1 0.8-2.3 1.6-3.6 2.2-5.1 2.3-11 2.3-16.2 0-6.7-3.1-11.4-10-11.4-17.9zm16.4 37.3h-3.5l-7.8-15.7h3.5zm-40 9.8c0-13.7 10.8-24.8 24.3-25.4l7.8 15.6h-16.4c-5.4 0-9.8 4.4-9.8 9.8v25.5h-5.9zm9.8 25.5v-25.5c0-3.2 2.6-5.9 5.9-5.9h54.8c3.2 0 5.9 2.6 5.9 5.9v25.5zm70.6 0v-25.5c0-5.4-4.4-9.8-9.8-9.8h-16.4l7.8-15.6c13.5 0.6 24.3 11.8 24.3 25.4v25.5z"/>
<rect class="st0" x="103" y="24.9" width="3.9" height="3.9"/>
<rect class="st0" x="103" y="32.8" width="3.9" height="3.9"/>
<rect class="st0" x="103" y="40.6" width="3.9" height="3.9"/>
<rect class="st0" x="12.8" y="42" width="3.9" height="3.9"/>
<rect class="st0" x="12.8" y="49.8" width="3.9" height="3.9"/>
<rect class="st0" x="12.8" y="57.7" width="3.9" height="3.9"/>
<polygon class="st1" points="66 93.6 54.7 93.7 54.7 96.4 56.5 96.4 56.5 95.7 59.3 95.7 59.3 104.2 58.5 104.2 58.5 106 62.4 106 62.4 104.2 61.5 104.2 61.5 95.7 64.2 95.7 64.2 96.4 66 96.4"/>
</g>
</svg>