<?xml version="1.0" encoding="UTF-8"?>
<svg width="210mm" height="297mm" version="1.1" viewBox="0 0 210 297" xmlns="http://www.w3.org/2000/svg" xmlns:cc="http://creativecommons.org/ns#" xmlns:dc="http://purl.org/dc/elements/1.1/" xmlns:rdf="http://www.w3.org/1999/02/22-rdf-syntax-ns#">
<metadata>
<rdf:RDF>
<cc:Work rdf:about="">
<dc:format>image/svg+xml</dc:format>
<dc:type rdf:resource="http://purl.org/dc/dcmitype/StillImage"/>
<dc:title/>
</cc:Work>
</rdf:RDF>
</metadata>
<g transform="matrix(1.0163 0 0 1.2295 46.783 72.797)" stroke-width=".2367">
<path class="st1" d="m61 122c-27.1 0-49.2-27.3-49.2-61s22.1-61 49.2-61 49.2 27.4 49.2 61-22.1 61-49.2 61zm0-121.1c-26.6 0-48.3 26.9-48.3 60.1s21.6 60.1 48.3 60.1 48.2-27.2 48.2-60.1-21.6-60.1-48.2-60.1z"/>
<path class="st1" d="m61 119.4c-25.9 0-46.9-26.2-46.9-58.4s21.2-58.3 46.9-58.3 46.9 26.2 46.9 58.4-21 58.3-46.9 58.3zm0-115.8c-25.4 0-46 25.7-46 57.4s20.6 57.4 46 57.4 46-25.7 46-57.4-20.6-57.4-46-57.4z"/>
<path class="st1" d="m61 107.6c-19.3 0-35.2-21-35.2-46.5s15.8-46.5 35.2-46.5 35.2 20.9 35.2 46.5-15.8 46.5-35.2 46.5zm0-92.4c-19 0-34.5 20.5-34.5 45.8s15.5 45.8 34.5 45.8 34.5-20.5 34.5-45.8-15.5-45.8-34.5-45.8z"/>
<path class="st1" d="m20.9 82.1-0.3-1.2 3.4-0.9 1-0.3c0.2-0.1 0.4-0.3 0.5-0.5 0.1-0.3 0.1-0.6 0-0.9s-0.2-0.6-0.5-0.8c-0.2-0.1-0.4-0.1-0.6 0l-0.8 0.2-3.4 0.9-0.3-1.2 3-1h1.6c0.3-0.1 0.6-0.1 0.9 0s0.6 0.3 0.7 0.6c0.2 0.3 0.4 0.7 0.5 1.1 0.1 0.5 0.1 0.9 0 1.4l-0.3 0.9c-0.2 0.2-0.3 0.4-0.6 0.5l-1.5 0.6z"/>
<path class="st1" d="m25.5 74.3-6.4 1.1v-1.2l3.9-3.3-4.3 0.7v-1.2l6.4-1.1v1.3l-3.8 3.2 4.1-0.7z"/>
<path class="st1" d="m24.5 68.1-6.4 0.6v-1.3l6.4-0.6z"/>
<path class="st1" d="m24.2 64-6.5 2.6v-1.4l4.7-1.8-4.7-1.4v-1.3l6.5 2z"/>
<path class="st1" d="m24.1 59.8-6.4-0.3v-4.8h1.3v3.4h1.2v-3.2h1.3v3.2h1.7v-3.5h1.1z"/>
<path class="st1" d="m24.4 53.9-6.4-1.2 0.4-2.7 0.3-1.2c0.2-0.3 0.4-0.5 0.7-0.6s0.7-0.1 1 0c0.4 0.1 0.8 0.3 1.1 0.6 0.3 0.4 0.4 0.8 0.4 1.3l0.6-0.6 1.2-0.6 1.3-0.6v1.5l-1.7 0.6-1 0.5-0.2 0.5v0.6l2.5 0.8zm-3.5-1.8v-2.5h-0.5c-0.2-0.1-0.3-0.1-0.5 0s-0.3 0.3-0.3 0.5v1.9z"/>
<path class="st1" d="m23.6 47.5v-1.2c0.3 0.1 0.7 0.1 1 0 0.3-0.3 0.5-0.7 0.5-1.1 0.1-0.3 0.1-0.7 0-1-0.1-0.2-0.3-0.4-0.5-0.5h-0.4c-0.2 0.1-0.5 0.2-0.6 0.5l-0.6 0.9c-0.2 0.5-0.6 0.9-1 1.3-0.4 0.2-1 0.2-1.4 0l-0.6-0.3c-0.2-0.3-0.4-0.6-0.5-0.9-0.1-0.4-0.1-0.9 0-1.3 0.1-0.6 0.5-1.2 1-1.6 0.5-0.2 1-0.2 1.5 0v1.3c-0.3-0.1-0.5-0.1-0.8 0-0.2 0.2-0.4 0.5-0.4 0.8-0.1 0.3-0.1 0.6 0 0.9 0.1 0.2 0.2 0.3 0.3 0.3 0.1 0.1 0.3 0.1 0.4 0 0.3-0.3 0.5-0.6 0.7-1 0.1-0.5 0.3-1 0.5-1.5 0.2-0.2 0.4-0.4 0.6-0.5 1.1-0.3 2.2 0.4 2.5 1.5v0.1c0.1 0.5 0.1 0.9 0 1.4-0.1 0.6-0.4 1.1-0.9 1.5-0.4 0.3-0.8 0.4-1.3 0.4z"/>
<path class="st1" d="m27 42.1-5.9-2 0.4-1.2 5.9 2.3z"/>
<path class="st1" d="m21.7 37.2 0.9-2c0.2-0.4 0.5-0.9 0.8-1.2 0.2-0.3 0.6-0.5 0.9-0.6 0.4-0.1 0.8-0.1 1.2 0 0.5 0.1 1 0.2 1.5 0.4 0.4 0.2 0.8 0.4 1.2 0.7 0.2 0.2 0.4 0.5 0.6 0.8 0.1 0.3 0.1 0.7 0 1 0 0.4-0.1 0.8-0.3 1.1l-0.9 2.2zm1.9-0.8 3.7 1.6 0.3-0.9v-1.4c0-0.2-0.1-0.5-0.2-0.7-0.3-0.2-0.7-0.4-1-0.6-0.4-0.1-0.7-0.2-1.1-0.3-0.2-0.1-0.5-0.1-0.7 0-0.3 0.2-0.5 0.6-0.5 0.9-0.2 0.3-0.4 0.5-0.5 0.8z"/>
<path class="st1" d="m33.1 28.9-0.7 1.2h-1.5l-1.5 2 1.2 1.2-0.7 1.2-4.4-5.2 0.7-1.2zm-3.7 0.8-2.2-0.4 1.6 1.9z"/>
<path class="st1" d="m28.2 24.6 1.2-1.9c0.2-0.3 0.5-0.6 0.8-0.9 0.3-0.2 0.6-0.4 1-0.4 0.4-0.1 0.8-0.1 1.2 0 0.5 0.2 0.9 0.5 1.3 0.8 0.5 0.3 1 0.7 1.4 1.2 0.2 0.4 0.4 0.8 0.5 1.2 0.1 0.3 0.1 0.7 0 1-0.1 0.4-0.3 0.7-0.6 1l-1.5 1.9zm1.6-0.3 3.4 2.5 0.6-0.8 0.4-0.6v-0.6c0.1-0.2 0.1-0.4 0-0.6-0.3-0.3-0.6-0.5-1-0.7-0.3-0.2-0.7-0.4-1-0.6-0.2-0.1-0.5-0.1-0.7 0-0.2 0-0.5 0.1-0.6 0.3l-0.6 0.8z"/>
<path class="st1" d="m39 21.8-4.3-4.9 0.9-0.8 4.8 1.5-2.8-3.2 0.9-0.8 4.3 4.8-1 0.9-4.8-1.7 2.8 3.4z"/>
<path class="st1" d="m48.7 14.8-1.2 0.7-1.2-1-2.3 1.3 0.3 1.7-1.2 0.7-1.1-7 1.2-0.7zm-3.5-0.9-1.9-1.6 0.5 2.5z"/>
<path class="st1" d="m52.1 11h1.3c0 0.6-0.2 1.2-0.6 1.7-0.9 1.1-2.4 1.5-3.8 0.9-0.7-0.5-1.2-1.2-1.4-2-0.3-0.8-0.3-1.8 0-2.6 0.4-0.7 1-1.3 1.7-1.6 0.6-0.3 1.4-0.3 2 0 0.4 0.2 0.7 0.5 1 0.9l-1 0.7c-0.3-0.6-1-0.8-1.6-0.6-0.3 0.2-0.6 0.5-0.8 0.9-0.2 0.6-0.2 1.2 0 1.7 0.2 0.6 0.5 1.1 1 1.5 0.4 0.2 0.8 0.2 1.2 0 0.3-0.1 0.5-0.3 0.7-0.6 0.2-0.2 0.3-0.6 0.3-0.9z"/>
<path class="st1" d="m55 12.8-1.3-6.3h1.3l1.2 6.1z"/>
<path class="st1" d="m56.8 9.1c-0.1-0.5-0.1-1.1 0-1.6 0.1-0.3 0.3-0.7 0.6-0.9 0.3-0.4 0.8-0.6 1.3-0.7 0.4-0.1 0.8-0.1 1.1 0 0.9-0.1 1.7 0.2 2.3 0.8 0.6 0.7 0.9 1.5 0.9 2.4 0.1 0.9-0.2 1.8-0.8 2.4-1.3 1.2-3.3 1.2-4.6 0-0.5-0.6-0.8-1.5-0.8-2.4zm1.4 0c0 0.6 0.2 1.2 0.6 1.6 0.7 0.7 1.8 0.7 2.5 0.1l0.1-0.1c0.4-0.5 0.5-1.1 0.5-1.7s-0.2-1.1-0.5-1.6c-0.7-0.7-1.8-0.7-2.5 0-0.5 0.4-0.8 1-0.7 1.7z"/>
<path class="st1" d="m63.8 12.1 1.3-6.3h1.3l1.7 5 0.9-4.2h1.2l-1.2 6.5h-1.3l-1.7-4.6-0.8 4.1z"/>
<path class="st1" d="m75.4 15.8-1.4-0.5v-1.6l-2.3-1-1.1 1.1-1.2-0.5 4.8-5 1.3 0.5zm-1.3-3.4v-2.5l-1.7 1.7z"/>
<path class="st1" d="m75.6 16.1 3.5-5.4 1.1 1-2.9 4.5 2.7 1.4-0.6 0.9z"/>
<path class="st1" d="m86.3 15.9 1.8 1.6c0.3 0.3 0.5 0.6 0.8 0.9 0.1 0.4 0.1 0.7 0 1.1 0 0.4-0.1 0.8-0.3 1.2-0.2 0.5-0.5 0.9-0.9 1.3-0.3 0.3-0.7 0.6-1.1 0.8s-0.9 0.3-1.3 0.3-0.7-0.1-1-0.3-0.6-0.4-0.9-0.7l-1.7-1.7zm0 1.7-3 3 0.7 0.7 0.6 0.5h0.6c0.2 0.1 0.5 0.1 0.7 0 0.3-0.2 0.7-0.4 0.9-0.7 0.3-0.3 0.5-0.6 0.7-0.9 0.1-0.2 0.1-0.5 0-0.7 0.1-0.2 0.1-0.4 0-0.6l-0.7-0.8z"/>
<path class="st1" d="m86 25 5.2-3.9 2.8 3.9-0.9 0.6-2-2.8-1.2 0.6 1.9 2.6-0.9 0.6-1.9-2.5-1.4 1 2.1 2.8-0.9 0.6z"/>
<path class="st1" d="m90.6 31.9 5.9-3.1 0.4 1.2-5.9 3.1z"/>
<path class="st1" d="m91.8 34 5.9-2.6 0.5 1.2-2.8 4.2 4-1.5 0.6 0.7-5.9 2.6-0.5-1.2 2.8-4.2-4.2 1.9z"/>
<path class="st1" d="m97.4 41.9 1-0.3 0.8 2.7-2.4 0.8c-0.4-0.2-0.7-0.6-1-0.9-0.3-0.4-0.6-0.9-0.8-1.4-0.2-0.6-0.2-1.2 0-1.8 0.1-0.6 0.4-1.1 0.8-1.5s0.9-0.7 1.5-0.9c0.6-0.1 1.2-0.1 1.8 0s1.1 0.4 1.5 0.8 0.6 0.8 0.8 1.3c0.2 0.6 0.2 1.3 0 1.9-0.2 0.5-0.5 0.9-1 1.2l-0.6-1.2c0.3-0.2 0.5-0.4 0.6-0.7s0.1-0.7 0-1c-0.1-0.5-0.5-0.9-0.9-1.1-0.6-0.2-1.2-0.2-1.7 0-0.6 0.2-1.2 0.6-1.5 1.2-0.2 0.5-0.2 1 0 1.5 0.1 0.3 0.2 0.6 0.4 0.8l0.6 0.6h0.8z"/>
<path class="st1" d="m96.3 46.3 6.4-1.2 0.9 4.7h-1l-0.6-3.4-1.5 0.5 0.6 3.1-1.2 0.2-0.5-3.2-1.7 0.3 0.7 3.5h-1z"/>
<path class="st1" d="m97.3 52.1 6.4-0.6v1.2l-3.8 3.1 4.2-0.4v1.2l-6.4 0.6v-1.3l4-3.1-4.1 0.4z"/>
<path class="st1" d="m97.8 58.7h6.5v1.3h-6.5z"/>
<path class="st1" d="m97.9 60.8h6.5v4.8h-1.3v-3.4h-1.3v3.2h-1.2v-3.2h-1.6v3.5h-1.1z"/>
<path class="st1" d="m97.7 66.7 6.4 0.8-0.3 2.8-0.3 1.5c-0.2 0.3-0.4 0.5-0.7 0.6s-0.7 0.1-1 0c-0.4-0.1-0.8-0.3-1.1-0.6-0.4-0.4-0.7-0.9-0.7-1.5-0.2 0.2-0.4 0.5-0.6 0.6l-1.2 0.7-1.3 0.6v-1.5l1.9-0.3 1-0.6 0.1-0.6v-0.6l-2.6-0.3zm3.6 1.8v2.5h0.5c0.1 0.1 0.4 0.1 0.5 0 0.2-0.1 0.3-0.4 0.3-0.6v-1.9z"/>
<path class="st1" d="m96.8 72.9 6.4 1.3v1.3l-6.4-1.3z"/>
<path class="st1" d="m94.8 80.9 0.3-1.3h1.6l0.7-2.4-1.3-0.9 0.3-1.3 5.6 4.1-0.3 1.3zm3.1-1.6h2.5l-2-1.5z"/>
<path class="st1" d="m30.5 99.7 4-3.2 0.8 1.1-3.2 2.7 2 2.4-0.6 0.5z"/>
<path class="st1" d="m34.2 104.1 3.6-3.6 0.9 0.9-3.5 3.6z"/>
<path class="st1" d="m36.3 106.2 3.1-4.2 1.7 1.2-1.2 3.5 3-2.1 1.3 0.9-3.2 4.4-0.9-0.7 2.4-3.3-3.4 2.4-1-0.8 1.5-4-2.4 3.2z"/>
<path class="st1" d="m48 113.4-1.2-0.6v-1.3l-2.3-1.1-1 1.1-1.2-0.6 4.5-3.5 1.2 0.6v5.9zm-1.2-2.8v-2l-1.6 1.3z"/>
<path class="st1" d="m54.1 115.1h-1.2l0.8-3.6c-0.5 0.2-1.1 0.4-1.7 0.4v-0.9h1.1c0.4-0.1 0.7-0.3 0.9-0.6h0.9z"/>
<path class="st1" d="m57.7 112.8c-0.3-0.1-0.5-0.3-0.6-0.5s-0.1-0.4 0-0.6c0-0.4 0.2-0.8 0.6-0.9 0.9-0.5 2-0.5 2.8 0 0.3 0.2 0.4 0.6 0.4 1 0.1 0.2 0.1 0.4 0 0.6-0.2 0.2-0.4 0.3-0.6 0.4 0.3 0.1 0.6 0.3 0.8 0.5 0.1 0.3 0.1 0.5 0 0.8 0 0.4-0.3 0.8-0.6 1.1-0.4 0.3-1 0.4-1.5 0.3-0.5 0-1-0.2-1.4-0.5s-0.6-0.7-0.6-1.2c0-0.3 0.1-0.6 0.3-0.8zm0 1.2c-0.2 0.5 0.1 1.1 0.6 1.3s1.1-0.1 1.3-0.6-0.1-1.1-0.6-1.3c-0.2-0.1-0.5-0.1-0.7 0-0.2-0.1-0.5-0.1-0.7 0-0.1 0.2 0 0.4 0.1 0.6zm0-2.1c-0.1 0.1-0.1 0.4 0 0.5s0.4 0.1 0.5 0c0.2 0.1 0.4 0.1 0.6 0 0.1-0.1 0.1-0.3 0-0.5 0.1-0.1 0.1-0.4 0-0.5v0.1c-0.2-0.1-0.4-0.1-0.6 0-0.1 0.1-0.2 0.2-0.2 0.3z"/>
<path class="st1" d="m61.5 111.5v-0.8l4.1-0.3v0.7c-0.4 0.4-0.7 0.8-0.9 1.2-0.3 0.5-0.6 1.1-0.7 1.7-0.1 0.5-0.1 1.1 0 1.6h-1.2c0-0.8 0.1-1.5 0.3-2.2 0.3-0.7 0.6-1.3 1-1.9z"/>
<path class="st1" d="m70.5 110.6-1.1 0.3c-0.1-0.1-0.2-0.3-0.3-0.3h-0.7c-0.3 0-0.5 0.2-0.6 0.4-0.1 0.4-0.1 0.8 0 1.2 0.2-0.4 0.6-0.6 1-0.7 0.4-0.2 0.9-0.2 1.3 0s0.7 0.6 0.8 1c0.2 0.4 0.2 0.9 0 1.3-0.3 0.4-0.8 0.7-1.3 0.8-0.9 0.4-2 0-2.4-0.9-0.1-0.3-0.2-0.6-0.2-0.9-0.3-0.7-0.3-1.4 0-2.1 0.3-0.5 0.9-0.9 1.5-1 0.4-0.1 0.8-0.1 1.2 0 0.4 0.2 0.6 0.5 0.8 0.9zm-2.3 2.6c0 0.3 0.2 0.5 0.4 0.6s0.4 0.1 0.6 0c0.2 0 0.4-0.2 0.5-0.3 0.1-0.3 0.1-0.5 0-0.8 0-0.3-0.2-0.5-0.4-0.6-0.3-0.3-0.8-0.4-1.1-0.1s-0.4 0.8 0 1.2c-0.1 0 0 0 0 0z"/>
<path class="st1" d="m75.4 112.9-2.4-4.7 1.8-0.9 1.4-0.6c0.3-0.1 0.7-0.1 1 0 0.3 0.2 0.6 0.4 0.8 0.7 0.1 0.3 0.1 0.5 0 0.8 0.1 0.2 0.1 0.5 0 0.7s-0.3 0.4-0.5 0.5l-1.2 0.6-0.8 0.3 0.7 1.8zm-0.8-4.5 0.6 1.3 0.6-0.3 0.5-0.5v-1.1h-0.6l-0.8 0.3z"/>
<path class="st1" d="m81 109.9-3.1-4.3 3.8-2.7 0.6 0.8-2.7 2 0.7 0.9 2.6-1.9 0.5 0.9-2.6 1.9 0.8 1.1 2.8-2.1 0.5 0.7z"/>
<path class="st1" d="m86.1 105.6-3.8-3.2 1.9-1.9c0.3-0.4 0.7-0.7 1.1-0.9 0.3-0.1 0.6-0.1 0.9 0 0.3 0 0.5 0.2 0.8 0.3 0.3 0.2 0.4 0.6 0.4 0.9 0 0.5-0.2 0.9-0.5 1.2h2.9l-1 1.1h-2.7l-0.5 0.4 1.5 1.5zm-1.2-3 0.6-0.7 0.8-0.9v-0.7c-0.1-0.1-0.3-0.1-0.4 0h-0.5l-0.6 0.7-0.7 0.7z"/>
<path class="st1" d="m86.5 97.8 0.7-1 2.3 1.6 0.8 0.5c0.2 0.1 0.4 0.1 0.6 0 0.3-0.1 0.5-0.3 0.6-0.6 0.2-0.2 0.3-0.5 0.3-0.8 0.1-0.2 0.1-0.4 0-0.5l-0.7-0.5-2.3-1.6 0.6-1 2.2 1.5c0.4 0.2 0.7 0.5 1 0.8 0.2 0.2 0.3 0.4 0.3 0.7 0.1 0.3 0.1 0.6 0 0.9-0.1 0.4-0.3 0.8-0.6 1.1-0.2 0.4-0.5 0.7-0.9 1-0.2 0.2-0.5 0.3-0.8 0.3h-0.6l-1.2-0.6z"/>
<path class="st1" d="m81.3 79.9 4.4-0.5v-3.1h-4.4c-0.1-0.8-0.2-1.5-0.3-2.3l4.2-1.9-0.9-2.7-4.3 1c-0.3-0.8-0.7-1.6-1.1-2.4l3.4-3.4-1.9-2.6-4 2.7c-0.6-0.7-1.2-1.3-1.8-1.9l2.5-4-2.2-1.8-3.1 3c-0.7-0.5-1.4-1-2.2-1.4l1-4.1-2.8-0.9-1.7 4c-0.9-0.2-1.7-0.4-2.6-0.5v-4.2h-3.2l-0.7 4.5c-0.9 0.1-1.8 0.2-2.6 0.4l-1.9-4.2-2.7 0.9 1 4.2c-0.7 0.3-1.4 0.7-2.1 1.1l-3.3-3.3-2.3 1.7 2.3 3.7c-0.6 0.5-1.2 1.1-1.7 1.7h-0.5l-4-2.4-1.6 2.4 3.8 3.1c-0.4 0.7-0.8 1.4-1.2 2.2l-4.5-0.4-0.6 2.8 4.2 1.4c-0.3 1.1-0.4 2.1-0.5 3.2h-4.5v2.8l4.5 0.8v2.4l-4 2 1 2.7 4.3-1.2c0.4 0.9 0.8 1.9 1.3 2.7l-3.3 2.4 1.5 2.5 4-1.9c0.6 0.7 1.2 1.3 1.8 1.9l-2.3 3.6 2.3 1.8 3-3.1c0.7 0.5 1.5 0.9 2.3 1.2l-1.3 4.3 2.6 1.1 2.2-4.2 2.4 0.4v0.3l0.5 4.6h2.9l0.5-4.9 2.1-0.3v0.5l1.8 4.2 2.7-0.9-1-4.9c0.9-0.4 1.7-0.8 2.5-1.3l2.4 3 2.7-1.5-1.9-3.8c0.7-0.6 1.3-1.2 1.9-1.9l3.5 2.3 1.7-2.3-3.2-2.9c0.5-0.8 0.9-1.6 1.2-2.4l4.3 1.2 1.1-2.7-3.9-1.9c0.1-0.8 0.3-1.7 0.3-2.6zm-20.2 14.6c-9.3 0.3-17-7-17.3-16.3s7-17 16.3-17.3 17 7 17.3 16.3v0.5c0.2 9.1-7 16.6-16.1 16.8h-0.2z"/>
<rect class="st1" x="57.7" y="65.2" width="1" height="8"/>
<rect class="st1" x="58.2" y="65.2" width="3.6" height="1.1"/>
<rect class="st1" x="61.6" y="65.2" width="3.6" height=".5"/>
<rect class="st1" x="64.7" y="65.2" width=".8" height="19.3"/>
<path class="st1" d="m57.7 73.2v4.6h3.8v-4.6zm2.6 3h-1.5v-1.6h1.5z"/>
<path class="st1" d="m57.7 82.1v2.2h3.8v-2.2z"/>
<path class="st1" d="m61.8 66.4v1.7c0.8 0.1 1.4 0.9 1.3 1.7-0.1 0.6-0.6 1.1-1.3 1.3v2.2h2v-6.8z"/>
<path class="st1" d="m61.8 68.1c-0.8 0-1.5 0.6-1.5 1.5v0.1c0 0.8 0.6 1.5 1.4 1.5h0.2v-3.1z"/>
<rect class="st1" x="62.2" y="74.6" width="1.7" height=".6"/>
<rect class="st1" x="62.2" y="75.7" width="1.7" height=".6"/>
<rect class="st1" x="57.7" y="84.2" width="7.9" height=".6"/>
<path class="st1" d="m71.1 77.7h-19.3l-3.5 4.9h26zm-9.6 4h-11.7l2.4-3.5h9.4z"/>
<polygon class="st1" points="58 85 52.3 91.9 51.8 91.7 57.5 84.7 57.5 83.8 56.5 83.8 50.7 90.7 50.3 90.4 56.3 83.3 58 83.3"/>
<path class="st1" d="m54.8 85.4c0.7 0.2 1.2 0.8 1.2 1.5l1.8-2v-1.3h-1.4z"/>
<polygon class="st1" points="70.8 91.7 70.4 91.9 64.7 85 64.7 83.3 66.4 83.3 72.4 90.4 71.9 90.7 66.1 83.8 65.2 83.8 65.2 84.7"/>
<path class="st1" d="m67.8 85.4c-0.7 0.2-1.2 0.8-1.2 1.5l-2-2v-1.3h1.6z"/>
<rect class="st1" x="58.7" y="84.6" width="2.1" height="3.3"/>
<rect class="st1" x="58.7" y="84.6" width=".6" height="10"/>
<rect class="st1" x="63.5" y="84.6" width=".6" height="10"/>
<rect class="st1" x="60.2" y="84.5" width=".4" height="10"/>
<rect class="st1" x="62.2" y="84.5" width=".4" height="10"/>
<rect class="st1" x="62" y="84.6" width="2.1" height="3.3"/>
<rect class="st1" x="60.2" y="87.9" width="2.5" height="3.3"/>
<path class="st1" d="m70.5 72.1c-0.2 0-0.4-0.2-0.6-0.3l-0.6-0.5c-0.3-0.3-0.3-0.9 0-1.2l17.6-12.1c0.3-0.3 0.9-0.3 1.2 0l0.4 0.8c0.3 0.4 0.3 0.9 0 1.2l-17.6 12.1zm17-13.8-17.7 12.1c-0.1 0.2-0.1 0.3 0 0.5l0.3 0.5 17.6-12.1c0.2 0 0.3-0.2 0.3-0.4v-0.2h-0.2c0-0.2-0.1-0.3-0.3-0.4z"/>
<path class="st1" d="m78.4 53.3c5 4.4 8.8 10 11.1 16.2 0-4.7-1.8-9.2-5.1-12.7-1.5-1.7-3.7-3-6-3.5z"/>
<path class="st1" d="m51.4 71.9-17.6-12.1c-0.3-0.3-0.3-0.9 0-1.2l0.3-0.5c0.3-0.3 0.9-0.3 1.2 0l17.6 12.1c0.3 0.3 0.3 0.9 0 1.2l-0.1 0.2c-0.1 0.2-0.4 0.3-0.6 0.3h-0.8zm-16.9-13.2h-0.3c-0.1 0.2-0.1 0.4 0 0.5l17.6 12.1 0.3-0.5c0.1-0.2 0.1-0.3 0-0.5l-17.6-12.1c-0.1 0.1-0.1 0.3 0 0.5z"/>
<path class="st1" d="m43.9 53.3c-4.9 4.4-8.8 10-11.1 16.2 0-4.7 1.8-9.2 5-12.7 1.6-1.8 3.7-3 6.1-3.5z"/>
<path class="st1" d="m51.7 49.8c3.4-1 7.1-1.3 10.6-0.8 2.7 0.7 5.4 1.2 8.2 1.5 0.1-0.3 0.1-0.5 0-0.8-0.4-0.4-0.9-0.7-1.5-0.8-1.7-0.1-3.2-1.1-3.9-2.6-2.6-0.2-4.9-1.6-6.3-3.8 0 0-2.3-2.3-2.3-2.4-1.9 3-3.5 6.3-4.8 9.7z"/>
<path class="st1" d="m64.1 19.6c-2.7 0.1-5.1 1.5-6.5 3.8-0.6 2.7-0.7 5.4-0.5 8.1 0 0 0 0.3 0.6 0 0.6-0.1 1.2-0.3 1.7-0.7v-4.8c0-1.9 0.8-3.7 2.1-5 1.4-0.7 3-0.8 4.4-0.3 1.6 0.7 3 1.8 4 3.2l1.3 1.4c0.2 0.3 0.4 0.5 0.6 0.8h-2.8c-1.8 0.1-3.6 0.8-5 1.9-0.7 0.3-1.3 0.7-1.7 1.2-0.1 0.9-0.1 1.8 0 2.7v1.1c0.8 1.2 1.4 2.4 1.9 3.7-2 1.4-4.4 2.1-6.9 1.9-3.8 0-3.5-0.6-3.5-0.6 0-0.8 0-1.6 0.1-2.3 0-1.7-0.5-3.3-1.3-4.8-0.8-2.2-0.8-4.5 0-6.7 2.4-3.9 7.1-5.9 11.5-4.6z"/>
<path class="st1" d="m56.7 41.1h-0.7c0.3-1.1 0.8-2.2 1.5-3.1l0.5 0.5c-0.6 0.7-1 1.6-1.3 2.6z"/>
<path class="st1" d="m65 47.3c-0.5-3.1-0.5-6.2 0-9.3 1.3-0.1 2.5 0.1 3.7 0.4 0.2-0.7 0.3-1.4 0.3-2.1 0.1-0.8 0.2-1.6 0.3-2.3v-0.6h1c0.3 0.1 0.6 0.1 0.9 0-0.1-0.2-0.2-0.5-0.3-0.7l-0.5-0.7c0-0.6-1.6-5.7-1.7-6.3h0.7c0.6 2.1 1.5 5.9 1.8 5.9v0.5c0.4 0.4 0.5 0.9 0.4 1.4-0.3 0.4-0.8 0.6-1.3 0.6v1.9c0 1-0.2 2-0.7 2.9h-0.6c-1-0.2-2.1-0.4-3.1-0.6-0.5 2.8-0.6 5.7-0.2 8.6z"/>
<path class="st1" d="m67.1 29.3c0.7-0.3 1.5-0.5 2.3-0.6m-0.1 0.3c-0.7 0.1-1.4 0.3-2.1 0.6z"/>
<path class="st1" d="m68.1 30.3c0.5-0.1 0.9-0.4 1-0.9m0.3-0.1c-0.3 0.5-0.8 0.9-1.4 1z"/>
<path class="st1" d="m88.8 43.4h0.5c1-0.1 1.8 0.6 1.9 1.6 0 0.8-0.4 1.6-1.1 2-0.9 0.6-2.1 0.6-3 0-0.8-0.7-0.8-1.8-0.1-2.6l0.1-0.1c-0.4 0.1-0.7 0.1-1.1 0-0.4-0.5-0.7-1.1-0.9-1.7l-0.4-0.6c-0.2-0.3-0.2-0.7 0-1 0 0 0.3-0.4 0-0.6-0.1-0.5-0.5-0.8-0.9-1-0.4 0-0.8 0-0.9-0.6-0.2-0.6-0.6-1.1-1-1.6-0.6 0-1-0.5-1-1 0-0.6 0.5-1 1-1 0.2 0 0.4 0.1 0.5 0.2l2.5-1.9h0.7c0.3 0.3 0.3 0.8 0 1.1l-2.6 1.3c-0.1 0.2-0.1 0.4 0 0.5l0.9 1.5c0.1 0.1 0.3 0.1 0.4 0l3.4-0.5h0.6l-2.7 3.7 1.9-0.8h0.5c1.3-0.6 1 0 1.5 0.7v1c0.1 0.6-0.2 1.1-0.7 1.4zm-0.4 3.5 1.2-0.5c0.4-0.1 0.7-0.6 0.6-1 0-0.5-0.3-0.9-0.7-0.9h-0.1-0.1c-0.5 0-1 0.1-1.4 0.3-0.5 0.1-0.8 0.7-0.7 1.2 0.1 0.6 0.6 1 1.2 0.9zm0-4.3c0.2-0.2 0.3-0.4 0.4-0.6-0.2-0.3-0.4-0.7-0.7-0.9-0.3 0.1-0.6 0.3-0.7 0.6 0.2 0.4 0.6 0.7 1 0.9zm-2.6-0.5c0.5 1.1 0.7 1.4 1.2 1.2 0.3-0.4 0.3-0.9 0-1.3-0.6-0.9-0.8 0.1-1.2 0.1zm0-2.7 0.6-0.9c-1.3 0.3-1.3 0.3-0.8 1z"/>
<path class="st1" d="m82.5 29.6c-0.5 0.6-0.5 0.6-1.4 0l-2.4 2.4h-0.5v-0.8c0.1-0.2 0.2-0.3 0.3-0.4l1.8-1.6v-0.6c-0.6-0.6-1.2-1.2-1.9-1.7-0.3-0.3-0.6 0-0.8 0.3-0.1 0.2-0.1 0.4 0 0.6 0.2 0.1 0.3 0.3 0.2 0.5 0 0 0 0.1-0.1 0.1l-0.1 0.1c-0.2 0.1-0.4 0.1-0.5 0-0.3 0-0.5-0.5-0.9 0s0.1 0.4 0.1 0.8l0.9 0.8c0.2 0.2 0.2 0.5 0 0.7-0.2 0.1-0.4 0.1-0.6 0l-1-1.5c-0.3-0.3-0.4-0.7-0.2-1.1 0-0.1 0.1-0.1 0.2-0.2l2.1-2.8s0.4-0.3 0.6 0l2.1 2.3z"/>
<path class="st1" d="m37.7 37.6 1 0.6c0.2 0.1 0.5 0.3 0.6 0.5s0.1 0.5 0 0.7c-0.2 0.1-0.3 0.1-0.5 0l-3.2-2c-0.1-0.2-0.1-0.4 0-0.5 0.1-0.2 0.3-0.3 0.5-0.3h2.6l-0.5-0.8-1.2-0.6s-0.5-0.5 0-0.8c0.2-0.1 0.4-0.1 0.6 0l3 1.9c0.2 0.1 0.4 0.2 0.5 0.4-0.1 0.1-0.2 0.3-0.4 0.3h-2.7z"/>
<path class="st1" d="m90.8 51.1c-0.3-0.1-0.5-0.2-0.7-0.4-0.1-0.2-0.4-0.2-0.6-0.1l-0.1 0.1c-0.2 0.3-0.4 0.5-0.6 0.7h-0.6c-0.1-0.3-0.1-0.5 0-0.8 0.3-0.4 0.8-0.8 1.1-1.2v-0.5h-1.9c0.2-0.2 0.4-0.4 0.7-0.5 0.4-0.2 0.8-0.3 1.2-0.4l1.9-0.5c0.8 0 0.9 0 1 0.7v0.9c0.3 0.8-0.1 1.6-0.8 1.9h-0.1c-0.1 0.1-0.3 0.1-0.5 0.1zm0.8-1.4c0-0.8-0.3-1.2-0.6-1.1s-0.5 0.2-0.6 0.5c-0.1 0.5 0.2 0.9 0.6 1.1 0.2-0.2 0.4-0.4 0.6-0.5z"/>
<path class="st1" d="m32.4 48c-0.4 0.4-0.7 0.9-1 1.3v1l0.6-0.5c0.4-0.5 1-0.9 1.6-1.2 0.6-0.2 1.3 0.1 1.5 0.7v0.1c0 0.1 0.1 0.3 0.1 0.4 0.1 0.9-0.3 1.8-1.1 2.2h-0.6c-0.1-0.3-0.1-0.6 0-0.9 0.4-0.2 0.7-0.6 0.8-1 0-0.5 0-0.6-0.6-0.3s-0.6 0.6-0.9 0.8l-1.4 0.7c-0.5-0.1-0.9-0.4-1.1-0.8-0.2-1.1 0.3-2.2 1.3-2.7 0.2 0.1 0.5 0.1 0.8 0.2z"/>
<path class="st1" d="m33.8 40.3v-0.6c0.2-0.5 0.5-1 0.8-1.4 0.2-0.1 0.4-0.1 0.6 0s0.2 0.3 0.1 0.5l-0.1 0.1-0.5 0.9c0 0.3-0.3 0.6 0 0.8s0.6 0.3 0.8 0c0.2-0.2 0.4-0.3 0.7-0.3 0.1 0.3 0.1 0.6 0 0.9v0.6c0.2 0.3 0.5 0.3 0.8 0.1 0.1 0 0.1-0.1 0.1-0.1 0.2-0.4 0.4-0.8 0.6-1.1 0.2-0.1 0.4-0.1 0.6 0 0.3 0 0.3 0.3 0 0.6l-1 1.9c-0.1 0.2-0.3 0.3-0.5 0.2 0 0-0.1 0-0.1-0.1l-0.1-0.1-2.4-2.1c-0.3-0.2-0.4-0.5-0.4-0.8z"/>
<path class="st1" d="m44.7 31.8c-0.3 0.2-0.7 0-0.9-0.3 0-0.1 0-0.1-0.1-0.2-0.4-1.2-0.9-2.3-1.2-3.5v-0.8h0.7l3.1 2c0.2 0 0.4 0.2 0.6 0.3 0 0.3-0.5 0.3-0.8 0-0.3-0.2-0.6-0.2-0.9 0 0 0.3-0.9 0.6-0.4 1.2 0.2 0.4 0.2 0.9-0.1 1.3zm-0.7-3.2 0.3 0.7v-0.4z"/>
<path class="st1" d="m34.4 48.3c-1.5-0.1-2.6-1.3-2.7-2.7 0.1-0.9 0.9-1.7 1.8-1.6h0.2c0.2 0 0.3 0.1 0.3 0.3v0.4h-0.3c-0.4 0-0.8 0.3-0.8 0.7v0.1c0.1 0.4 0.3 0.8 0.6 1.1 0.4 0.4 1 0.6 1.5 0.5 0.1 0 0.2-0.1 0.3-0.2 0.1-0.3 0.1-0.7 0-1v-0.9c0.2-0.1 0.4-0.1 0.6 0 0.3 0.6 0.3 1.3 0 1.8-0.2 0.6-0.7 1.1-1.3 1.2h-0.1v0.3z"/>
<path class="st1" d="m37.9 33.4v-1c0.4-0.6 0.8-1.1 1.2-1.6 0.2-0.1 0.4-0.1 0.5 0 0.1 0.2 0.1 0.4 0 0.6v0.7c0.2 0.3 0.5 0.6 0.8 0.8l2 1.3c0.1 0.2 0.1 0.4 0 0.6-0.2 0.1-0.4 0.1-0.5 0l-2.4-1.9c-0.3-0.3-0.5 0-0.8 0l-0.6 0.4z"/>
<path class="st1" d="m43.4 33.3c-0.2-0.2-0.5-0.4-0.7-0.6l-1.9-2.3s-0.5-0.6 0-0.9 0.3-0.1 0.3 0.2l2.4 2.9c0.1 0.1 0.1 0.3 0 0.4 0.1 0.1 0 0.2-0.1 0.3z"/>
<path class="st1" d="m36.8 44.6-1.5-0.8-1.7-0.9-0.3-0.3v-0.5c0.2-0.1 0.4-0.1 0.5 0l2.4 1.2c0.3 0.1 0.6 0.2 0.8 0.4 0.1 0.2 0.1 0.4 0 0.5 0 0.2-0.1 0.3-0.2 0.4z"/>
<polyline class="st1" points="69.7 35.5 69.1 35.6 69.9 36 69.9 35.5"/>
</g>
</svg>
