<?xml version="1.0" encoding="UTF-8"?>
<svg width="210mm" height="297mm" version="1.1" viewBox="0 0 210 297" xmlns="http://www.w3.org/2000/svg" xmlns:cc="http://creativecommons.org/ns#" xmlns:dc="http://purl.org/dc/elements/1.1/" xmlns:rdf="http://www.w3.org/1999/02/22-rdf-syntax-ns#">
<metadata>
<rdf:RDF>
<cc:Work rdf:about="">
<dc:format>image/svg+xml</dc:format>
<dc:type rdf:resource="http://purl.org/dc/dcmitype/StillImage"/>
<dc:title/>
</cc:Work>
</rdf:RDF>
</metadata>
<g transform="matrix(.64036 0 0 .80905 45.399 9.9587)">
<path transform="matrix(.7561 .07088 -.07531 .90078 98.63 12.07)" d="m86.14 219.06c-7.647 8.848 0.59 20.47-9.088 27.038-9.677 6.567-17.435-5.38-28.482-1.54-11.047 3.838-9.726 18.021-21.39 18.87-11.664 0.85-12.41-13.376-23.896-15.575-11.487-2.199-17.434 10.745-27.96 5.648s-4.06-17.79-12.907-25.437c-8.848-7.647-20.47 0.589-27.038-9.088-6.567-9.677 5.38-17.436 1.54-28.483-3.838-11.047-18.022-9.725-18.87-21.39-0.85-11.664 13.376-12.41 15.575-23.896s-10.745-17.434-5.648-27.96c5.097-10.525 17.789-4.059 25.436-12.907 7.648-8.848-0.588-20.47 9.089-27.037 9.677-6.568 17.436 5.379 28.483 1.54 11.046-3.84 9.725-18.022 21.39-18.871 11.663-0.849 12.41 13.376 23.896 15.575s17.433-10.745 27.96-5.648c10.524 5.098 4.058 17.79 12.906 25.438 8.848 7.647 20.47-0.588 27.037 9.088 6.567 9.677-5.379 17.436-1.54 28.483s18.022 9.726 18.87 21.39c0.85 11.664-13.375 12.41-15.574 23.896-2.2 11.487 10.744 17.434 5.647 27.96-5.096 10.525-17.789 4.06-25.436 12.907z" fill="none" stroke="#000" stroke-linejoin="round" stroke-width="1.1999" style="paint-order:fill markers stroke"/>
<path transform="matrix(.99981 .019686 -.016894 .99986 0 0)" d="m165.57 157.12a61.491 72.823 0 0 1-61.491 72.823 61.491 72.823 0 0 1-61.491-72.823 61.491 72.823 0 0 1 61.491-72.823 61.491 72.823 0 0 1 61.491 72.823z" fill="none" stroke="#000" stroke-linejoin="round" stroke-width="1.322" style="paint-order:fill markers stroke"/>
<path transform="matrix(.99981 .019738 -.016842 .99986 0 0)" d="m152.28 157.11a48.205 57.25 0 0 1-48.205 57.25 48.205 57.25 0 0 1-48.205-57.25 48.205 57.25 0 0 1 48.205-57.25 48.205 57.25 0 0 1 48.205 57.25z" fill="none" stroke="#000" stroke-linejoin="round" stroke-width="1.0378" style="paint-order:fill markers stroke"/>
<path d="m74.97 116.48h51.704s9.234 49.144 0 70.897c-4.923 11.597-13.304 25.965-25.444 26.061-12.332 0.097-21.868-14.922-26.26-26.06-8.668-21.986 0-70.898 0-70.898z" fill="none" stroke="#000" stroke-linejoin="round" stroke-width="1.0461" style="paint-order:fill markers stroke"/>
<g transform="matrix(1.0234,0,0,1.0199,-3.695,-4.465)" stroke-width=".99995" style="white-space:pre" aria-label="UNIVERSIDAD NACIONAL DE PIURA">
<path d="m52.294 191.49-0.62486-1.1816 5.159-2.7281q1.3461-0.71184 2.299-0.82601 0.95287-0.11418 1.8743 0.41961 0.91209 0.53093 1.5949 1.8222 0.66352 1.2547 0.653 2.2813-0.01051 1.0266-0.64632 1.7993-0.6419 0.77592-2.0611 1.5264l-5.159 2.7282-0.62486-1.1816 5.1529-2.7249q1.1634-0.6152 1.6049-1.1215 0.43223-0.50916 0.45368-1.1908 0.01823-0.68774-0.38439-1.4491-0.68928-1.3035-1.5732-1.5453-0.88393-0.24185-2.565 0.64714z"/>
<path d="m59.734 183.53-9.5291 3.3505-0.45481-1.2935 5.7217-7.6356-7.4815 2.6306-0.4251-1.209 9.5291-3.3505 0.45481 1.2935-5.7282 7.6379 7.488-2.6329z"/>
<path d="m56.542 173.61-9.8129 2.395-0.31694-1.2986 9.8129-2.395z"/>
<path d="m55.227 167.16-9.4523 5.2915-0.20292-1.4326 6.8973-3.6283q0.82877-0.43749 1.5629-0.7572-0.8515-0.116-1.7136-0.30704l-7.6481-1.6724-0.19132-1.3508 10.556 2.4993z"/>
<path d="m54.46 160.64-10.101-0.0754 0.0545-7.3033 1.192 9e-3 -0.04453 5.9667 3.0936 0.0231 0.0417-5.5878 1.1851 9e-3 -0.0417 5.5877 3.4381 0.0257 0.04627-6.201 1.192 9e-3z"/>
<path d="m54.674 151.23-9.9548-1.7119 0.75901-4.4138q0.22887-1.3309 0.6196-1.9768 0.38393-0.64708 1.1342-0.94453t1.5719-0.15616q1.0593 0.18217 1.668 0.99295 0.60864 0.81078 0.55918 2.2774 0.34116-0.47966 0.63233-0.70924 0.62891-0.48611 1.5121-0.86556l3.0072-1.2657-0.28492 1.6569-2.2976 0.9612q-0.9956 0.42305-1.5352 0.71479-0.53956 0.29173-0.78107 0.55782-0.24034 0.25929-0.36759 0.55202-0.08607 0.21591-0.17364 0.72519l-0.26273 1.5279 4.4206 0.76018zm-5.3349-2.2737 0.48693-2.8316q0.1553-0.90313 0.05954-1.444-0.10256-0.54198-0.46444-0.87687-0.36868-0.33606-0.8508-0.41896-0.70621-0.12145-1.2499 0.31639-0.54254 0.43105-0.73288 1.5379l-0.54182 3.1508z"/>
<path d="m53.396 140.61 0.30899-1.2274q0.74542 0.16371 1.3137 0.0181 0.56405-0.15444 1.0762-0.70608 0.50568-0.55389 0.78789-1.3676 0.2506-0.72259 0.22768-1.3504-0.02292-0.62783-0.30141-1.0234-0.28274-0.40435-0.72541-0.55787-0.44917-0.15578-0.87148-0.0105-0.42881 0.14299-0.86436 0.66287-0.28293 0.33215-1.0514 1.5388-0.77502 1.2043-1.2378 1.6346-0.59509 0.55936-1.2398 0.715-0.64894 0.14687-1.3064-0.0812-0.72258-0.2506-1.2053-0.87745-0.48922-0.6291-0.54153-1.5297-0.05231-0.90056 0.28182-1.864 0.368-1.0611 0.99296-1.7486 0.62071-0.69632 1.436-0.9022 0.81526-0.20587 1.6663 0.0528l-0.32879 1.2424q-0.93872-0.21617-1.5973 0.18989-0.65635 0.39954-1.0379 1.4997-0.39735 1.1457-0.15708 1.8198 0.23601 0.66527 0.8284 0.87072 0.51427 0.17835 0.97496-0.0776 0.45843-0.24941 1.3428-1.6638 0.88008-1.4232 1.3391-1.9057 0.67306-0.70005 1.4032-0.8917 0.7236-0.1939 1.4917 0.0725 0.76164 0.26415 1.2874 0.9351 0.51924 0.66869 0.61234 1.6199 0.08885 0.94241-0.2656 1.9644-0.44927 1.2954-1.1316 2.0433-0.68009 0.74136-1.6091 0.98072-0.93322 0.2306-1.8992-0.0752z"/>
<path d="m60.039 132.24-9.1604-4.2564 0.56325-1.2122 9.1604 4.2564z"/>
<path d="m61.541 128.85-8.6592-5.2008 1.7915-2.9829q0.60664-1.01 1.05-1.4671 0.61829-0.64136 1.3829-0.89743 0.99037-0.33751 2.0963-0.13141 1.1036 0.19664 2.2613 0.89197 0.98641 0.59245 1.61 1.2804 0.6236 0.688 0.90927 1.3498 0.27976 0.65831 0.31021 1.2633 0.02809 0.59556-0.18964 1.2926-0.21419 0.69117-0.68602 1.4768zm-0.33362-1.7596 1.1104-1.8488q0.5144-0.85646 0.64582-1.4366 0.13497-0.58604 0.01937-1.0493-0.16278-0.65234-0.71314-1.2883-0.55272-0.64543-1.5332-1.2343-1.3585-0.81595-2.3547-0.80339-0.9985 3e-3 -1.6297 0.49202-0.45391 0.35429-1.0676 1.3761l-1.0927 1.8192z"/>
<path d="m66.227 121.04-5.1268-9.5285 0.93922-1.0916 10.353 3.4542-0.99314 1.1543-3.0874-1.1022-2.7547 3.2017 1.5955 2.8362zm-1.2433-4.9146 2.2334-2.5958-2.8081-1.0254q-1.2808-0.46576-2.0551-0.82294 0.61061 0.77987 1.1074 1.6709z"/>
<path d="m73.214 113.15-6.242-7.9414 2.7356-2.1502q0.92632-0.72809 1.5033-0.99754 0.80603-0.3794 1.6117-0.34666 1.0457 0.037 2.0059 0.62308 0.96138 0.57643 1.7959 1.6382 0.71106 0.90465 1.0491 1.7695 0.338 0.86486 0.36948 1.585 0.02722 0.71476-0.15959 1.291-0.18565 0.56659-0.63716 1.1406-0.44609 0.56973-1.1666 1.136zm0.3143-1.7632 1.6955-1.3327q0.78547-0.61739 1.1147-1.1128 0.33465-0.49967 0.39145-0.97374 0.07998-0.66757-0.20808-1.4578-0.2869-0.79985-0.99371-1.6991-0.97931-1.2459-1.9147-1.5886-0.93426-0.35237-1.6981-0.12004-0.55027 0.1696-1.4874 0.90622l-1.6685 1.3114z"/>
<path d="m84.831 105.16-3.6019-9.4369 1.281-0.48893 7.7846 5.5174-2.8279-7.4092 1.1973-0.45699 3.6019 9.4369-1.281 0.48893-7.787-5.5238 2.8304 7.4157z"/>
<path d="m93.366 101.9 2.4688-10.535 1.4266-0.19593 5.4699 9.4445-1.5086 0.20718-1.5835-2.8705-4.1844 0.57466-0.68277 3.1817zm2.3231-4.5058 3.3926-0.46591-1.425-2.628q-0.65125-1.1972-0.9949-1.9776-0.05895 0.98872-0.27677 1.9854z"/>
<path d="m111.49 98.298 1.2731 0.52899q-0.65601 1.5678-1.8665 2.2669-1.2026 0.69325-2.7636 0.46309-1.6155-0.2382-2.5347-1.0423-0.91134-0.80995-1.2591-2.1358-0.34094-1.3248-0.12988-2.7563 0.23017-1.561 0.99406-2.6323 0.77171-1.0772 1.9576-1.5152 1.1937-0.44384 2.5161-0.24886 1.4996 0.22112 2.4095 1.1353t1.108 2.3572l-1.3472 0.11477q-0.18683-1.1419-0.77465-1.737t-1.5898-0.74284q-1.152-0.16986-2.0105 0.2677-0.85167 0.43856-1.3029 1.3262-0.45025 0.8808-0.59598 1.8692-0.18795 1.2747 0.0394 2.2832 0.23519 1.0028 0.94974 1.5887 0.71454 0.58591 1.6279 0.72059 1.1111 0.16383 1.9758-0.36334 0.86474-0.52717 1.3233-1.748z"/>
<path d="m114.06 102.74 3.023-9.638 1.2754 0.40004-3.023 9.638z"/>
<path d="m119.45 99.168q1.1156-2.2539 2.9556-2.9269 1.843-0.67918 3.7573 0.26832 1.2536 0.62046 1.9636 1.7176t0.70313 2.4315q2e-3 1.3312-0.67013 2.6897-0.68158 1.377-1.7753 2.1888t-2.3907 0.86937q-1.294 0.0514-2.4734-0.53234-1.2782-0.63269-1.9792-1.7484t-0.69084-2.4408q0.01-1.325 0.59995-2.5168zm1.2258 0.62982q-0.80996 1.6364-0.40073 3.0152 0.41846 1.3757 1.7461 2.0328 1.3524 0.66937 2.6937 0.14936 1.3476-0.51695 2.2125-2.2645 0.5471-1.1054 0.57693-2.1131 0.0391-1.0109-0.46031-1.8192-0.49014-0.81151-1.3855-1.2547-1.2721-0.62963-2.6262-0.20817-1.3449 0.41834-2.3566 2.4623z"/>
<path d="m127.34 108.88 6.3636-7.8444 1.0648 0.86382-0.87608 9.5012 4.9962-6.1588 0.99526 0.80738-6.3636 7.8444-1.0648-0.86382 0.88042-9.5066-5.0006 6.1642z"/>
<path d="m134.39 114.67 10.251-3.4618 0.91922 1.1085-5.1364 9.63-0.972-1.1721 1.6028-2.8597-2.6961-3.2512-3.063 1.0989zm5.0533-0.40424 2.1859 2.636 1.4804-2.5972q0.67332-1.1849 1.1549-1.8886-0.87098 0.47164-1.8325 0.8125z"/>
<path d="m140.87 122.89 8.6616-5.1966 0.68769 1.1462-7.6395 4.5834 2.5593 4.2658-1.0222 0.61324z"/>
<path d="m146.25 132.83 9.4983-3.4367 1.1838 3.2719q0.40086 1.1079 0.47578 1.7403 0.10748 0.88435-0.17629 1.6392-0.36302 0.98131-1.2207 1.7093-0.84886 0.73211-2.1188 1.1916-1.082 0.39148-2.0092 0.44121-0.92723 0.0497-1.621-0.14624-0.68724-0.19831-1.1758-0.55642-0.47978-0.35397-0.88321-0.96271-0.40109-0.60226-0.71288-1.464zm1.5757 0.85139 0.73375 2.028q0.33992 0.93947 0.70708 1.4075 0.36951 0.47447 0.80185 0.67708 0.60881 0.2853 1.4495 0.25957 0.84948-0.0216 1.925-0.41073 1.4902-0.53918 2.109-1.3199 0.62759-0.77662 0.64653-1.5748 0.0115-0.57569-0.39403-1.6966l-0.72203-1.9956z"/>
<path d="m149.57 142.5 9.915-1.929 1.3948 7.1691-1.17 0.22764-1.1395-5.857-3.0367 0.5908 1.0671 5.4851-1.1633 0.22632-1.0671-5.4851-3.3749 0.65659 1.1842 6.087-1.1701 0.22763z"/>
<path d="m151.44 155.67 10.096 0.30203-0.11393 3.8085q-0.0301 1.0055-0.14236 1.5329-0.14622 0.7401-0.5125 1.2323-0.35939 0.49246-0.99518 0.77674-0.636 0.29117-1.3867 0.26871-1.2879-0.0385-2.1587-0.88487-0.86392-0.84613-0.79984-2.988l0.0775-2.5895-4.1047-0.12279zm5.2562 1.4945-0.0781 2.6102q-0.0387 1.2948 0.42708 1.8533 0.46582 0.5585 1.3405 0.58466 0.63361 0.019 1.091-0.29134 0.46402-0.30321 0.62431-0.8223 0.0996-0.33478 0.12682-1.2439l0.0773-2.5826z"/>
<path d="m150.86 165.29 10.006 1.3829-0.183 1.3241-10.006-1.3829z"/>
<path d="m158.59 177.84-0.32426 1.2968-5.6616-1.4157q-1.4772-0.3694-2.2626-0.92091-0.78539-0.5515-1.1145-1.5642-0.32414-1.0044 0.0302-2.4214 0.34432-1.377 1.0379-2.1339t1.6828-0.90732q0.99599-0.14867 2.5534 0.24078l5.6616 1.4157-0.32427 1.2968-5.6549-1.4141q-1.2767-0.31925-1.9435-0.2374-0.66176 0.0902-1.133 0.58315-0.47295 0.49964-0.68188 1.3352-0.3577 1.4304 0.13858 2.2008 0.49627 0.7704 2.3412 1.2317z"/>
<path d="m147.75 178.83 9.3318 3.8661-1.7142 4.1376q-0.51689 1.2476-1.0405 1.7914-0.51725 0.54643-1.3147 0.671-0.79741 0.12458-1.5676-0.19452-0.99302-0.4114-1.4078-1.3365t-0.0429-2.3447q-0.43859 0.39257-0.77323 0.55225-0.72067 0.33536-1.6658 0.51059l-3.2123 0.57096 0.64347-1.5532 2.4531-0.43056q1.0644-0.19295 1.655-0.35845 0.59062-0.1655 0.88489-0.37174 0.29164-0.19987 0.48033-0.45731 0.13159-0.1916 0.32937-0.66901l0.59337-1.4322-4.1439-1.7168zm4.7017 3.3948-1.0997 2.6544q-0.35074 0.84661-0.37666 1.3952-0.0196 0.55125 0.25952 0.95773 0.28544 0.40912 0.73739 0.59636 0.66201 0.27427 1.2889-0.0328 0.62428-0.30072 1.0541-1.3383l1.2236-2.9536z"/>
<path d="m144.26 187.22 6.6832 8.5095-0.73835 1.2364-10.792-1.6298 0.78075-1.3073 3.2306 0.55701 2.1656-3.6262-2.0577-2.521zm2.0668 4.629-1.7558 2.94 2.9422 0.52924q1.3417 0.23948 2.1657 0.45875-0.73517-0.66375-1.3773-1.4565z"/>
</g>
<path d="m65.015 193.48s-19.137-27.628-5.813-59.322c14.456-34.387 43.528-33.252 43.528-33.252s32.354-0.855 45.339 36.97c10.779 31.4-8.411 56.741-8.411 56.741" fill="none" stroke-width=".99989"/>
<path d="m79.936 125.15h41.82s7.469 40.35 0 58.21c-3.982 9.522-10.76 21.319-20.58 21.397-9.974 0.08-17.687-12.251-21.24-21.397-7.01-18.05 0-58.21 0-58.21z" fill="none" stroke="#000" stroke-linejoin="round" stroke-width=".85295" style="paint-order:fill markers stroke"/>
<path d="m81.546 228.64s12.411 4.02 19.33 3.941c12.065-0.138 20.006-4.511 20.006-4.511v0.07" fill="none" stroke="#000" stroke-width=".095355px"/>
<g transform="translate(0,-1.92)" stroke-width=".26457" aria-label="PERÚ">
<path d="m82.552 229.05 2.6655-9.7429 3.6752 1.0055q0.9703 0.26545 1.4566 0.4985 0.68503 0.31599 1.0775 0.78766 0.39424 0.46503 0.5212 1.1498 0.13361 0.68659-0.06458 1.411-0.34 1.2428-1.3672 1.8904-1.0254 0.64096-3.0923 0.0755l-2.4989-0.68365-1.0837 3.961zm2.6875-4.758 2.5188 0.6891q1.2494 0.34182 1.9017 0.0203 0.6523-0.32158 0.88321-1.1656 0.16728-0.61142-0.0269-1.1289-0.18571-0.52227-0.65262-0.80002-0.30201-0.17549-1.1793-0.41549l-2.4922-0.68183z"/>
<path d="m92.594 231.75 1.3482-10.011 7.2382 0.97482-0.1591 1.1813-5.9135-0.79641-0.41292 3.066 5.5379 0.74582-0.15818 1.1745-5.5379-0.74582-0.4589 3.4074 6.1456 0.82768-0.1591 1.1813z"/>
<path d="m102.9 232.71-1.3039-10.016 4.4411-0.57813q1.3392-0.17432 2.0717 8e-3 0.7316 0.17574 1.2373 0.80474 0.50573 0.62899 0.61335 1.4557 0.13875 1.0659-0.45616 1.8868-0.59492 0.82091-2.0108 1.2067 0.55901 0.18431 0.86433 0.39471 0.65014 0.45733 1.2735 1.1891l2.0972 2.4994-1.6671 0.21701-1.5968-1.9114q-0.69817-0.82628-1.1362-1.2556-0.43805-0.42936-0.76358-0.58153-0.31871-0.15307-0.63595-0.1882-0.2317-0.0185-0.74414 0.0482l-1.5373 0.20012 0.57902 4.448zm0.59707-5.7684 2.8492-0.37089q0.90872-0.11829 1.3971-0.36947 0.48754-0.25802 0.70064-0.70266 0.21221-0.45147 0.14906-0.93657-0.0925-0.71058-0.67136-1.1008-0.57203-0.39107-1.6857-0.2461l-3.1703 0.41269z"/>
<path d="m116.52 219.16 1.2501-0.47331 2.0665 5.4578q0.53918 1.4241 0.53416 2.3837-5e-3 0.95967-0.64909 1.8077-0.64007 0.83911-2.0061 1.3563-1.3274 0.50258-2.3448 0.36468t-1.7051-0.86473q-0.69022-0.73328-1.2587-2.2347l-2.0664-5.4578 1.2501-0.47331 2.064 5.4514q0.46599 1.2308 0.91354 1.7317 0.45155 0.49211 1.1252 0.59803 0.68016 0.10349 1.4856-0.20148 1.379-0.52211 1.7287-1.3692 0.34972-0.84706-0.32365-2.6255zm-3.4801 0.65458 0.17389-2.1287 1.5207-0.57578-0.7345 2.341z"/>
</g>
<path d="m86.694 139.76-7.327-8.175 0.118-6.517 42.485-0.474 0.355 6.754-7.386 8.293s7.327-14.81 6.618-14.217c-0.71 0.592-9.632 11.848-9.632 11.848l5.968-12.204-8.568 11.967 4.846-12.44-7.387 12.084 4.077-11.374-5.495 11.137 2.482-11.255-4.905 11.73 1.773-11.493-3.309 12.44 0.473-11.848-0.946 11.256-1.359-11.967 0.768 12.085-3.604-11.374 2.186 11.137-4.727-11.255 2.6 10.781-5.613-11.018 4.077 11.255-6.914-10.9 4.314 11.019-8.273-11.019 5.555 11.019-9.1-10.782z" stroke-width=".99995"/>
<path d="m100.94 145.93c0.197-0.156 1.591 0.94 1.591 0.94l0.972 2.139 1.901-0.329c-0.197-1.17-0.394-2.339-0.746-3.426-0.352-1.088-0.86-2.093-0.719-2.97s0.93-1.627 1.726-1.892c0.795-0.265 1.598-0.045 2.52 0.366 0.923 0.411 1.965 1.014 2.895 1.398s1.746 0.548 2.76 0.566c1.014 0.019 2.225-0.11 3.253-0.338s1.873-0.557 2.19-0.493 0.106 0.52-0.091 1.05c-0.198 0.53-0.38 1.134-0.525 1.591-0.144 0.458-0.249 0.77-0.425 1.208-0.176 0.439-0.423 1.004-0.68 1.342-0.258 0.337-0.525 0.447-0.905 0.72-0.38 0.275-0.873 0.713-1.233 0.983s-0.587 0.37-1.01 0.48-1.04 0.228-1.624 0.333-1.133 0.197-1.661 0.626c-0.528 0.43-1.035 1.197-1.606 1.773-0.57 0.576-1.204 0.96-1.81 1.179-0.605 0.219-1.182 0.274-1.774 0.137-0.591-0.137-1.197-0.466-1.732-1.014-0.535-0.549-1-1.316-1.655-1.737-0.655-0.42-1.5-0.493-2.197-0.1s-1.246 1.252-1.64 1.8c-0.395 0.548-0.634 0.786-1.19 0.95-0.557 0.165-1.43 0.256-2.092 0.201-0.662-0.054-1.113-0.256-1.598-0.776-0.486-0.521-1.007-1.362-1.24-1.873-0.232-0.512-0.176-0.695-0.458-0.768-0.281-0.073-0.9-0.037-1.647-0.055s-1.62-0.091-2.085-0.183c-0.464-0.091-0.52-0.2-0.922-0.41-0.401-0.211-1.148-0.522-1.81-1.033-0.662-0.512-1.24-1.225-1.69-1.965s-0.774-1.508-1.049-2.303c-0.275-0.794-0.5-1.617-0.493-1.955s0.247-0.192 0.796 9e-3c0.55 0.201 1.408 0.457 2.718 0.54 1.31 0.081 3.07-0.01 4.542-0.376 1.471-0.365 2.654-1.005 3.661-1.388 1.007-0.384 1.838-0.512 2.543-0.293 0.704 0.22 1.281 0.786 1.506 1.545 0.226 0.758 0.099 1.708-0.112 2.44-0.212 0.73-0.507 1.242-0.62 1.918s-0.042 1.517 0.218 1.955c0.261 0.439 0.712 0.476 1.12 0.12 0.408-0.357 0.774-1.106 1.155-1.636 0.38-0.53 0.774-0.841 0.972-0.996z" fill="none" stroke="#000" stroke-width=".85295"/>
<path d="m102.36 158.72 0.365 2.544-0.767 3.485 0.913-0.035 0.804-2.893-0.11-2.474-0.876-1.743zm-3.762 0.383-0.146 2.474 1.06 3.137 1.168-0.07-1.06-3.45 0.037-2.579-0.219-1.01zm-1.79 5.61-1.058 1.5 2.3 2.16-0.109 0.732 6.281 0.14-0.11-0.698 2.776-2.544-1.862-1.29zm-0.255-3.972c0.646-0.79 1.936-2.335 1.936-2.335l0.11 0.697 0.84-1.499 0.218 1.011 1.206-2.23 1.497 2.335 0.329-1.116 0.876 1.743 0.365-1.01 1.534 2.648v3.346l-0.438 0.383h-8.217l-0.365-0.523z" fill="none" stroke="#000" stroke-width=".85295"/>
<g transform="matrix(.44407 0 0 .59809 57.06 128.9)" fill="none" stroke="#000" stroke-width="1.7259">
<path d="m77.942 68.055-0.275 25.774c1.668 0.343 3.337 0.686 5.645 0.32 2.307-0.365 5.255-1.44 7.289-2.08 2.033-0.639 3.153-0.845 4.455-0.49 1.303 0.354 2.788 1.268 4.182 1.416 1.394 0.149 2.696-0.468 3.976-0.765s2.536-0.274 4.513 0.32c1.976 0.594 4.673 1.76 7.072 2.193 2.4 0.434 4.501 0.137 6.603-0.16l-0.137-26.597c-1.714 0.64-3.427 1.28-5.86 1.268-2.434-0.011-5.587-0.674-8.25-0.994-2.662-0.32-4.832-0.297-7.129-0.32-2.296-0.023-4.718-0.091-7.197 0.137-2.48 0.229-5.016 0.754-6.638 1.109-1.623 0.354-2.331 0.537-3.554 0.32-1.222-0.217-2.958-0.834-3.827-1.143z"/>
<path d="m74.921 68.247-0.308 28.134c1.874 0.374 3.747 0.749 6.338 0.35 2.592-0.4 5.902-1.572 8.186-2.27 2.283-0.699 3.54-0.923 5.003-0.536 1.463 0.386 3.13 1.384 4.696 1.546 1.565 0.162 3.027-0.511 4.464-0.836 1.437-0.324 2.848-0.299 5.068 0.35 2.22 0.648 5.247 1.92 7.941 2.394 2.695 0.474 5.055 0.15 7.415-0.175l-0.153-29.032c-1.925 0.698-3.85 1.397-6.582 1.384-2.732-0.012-6.273-0.735-9.263-1.085-2.989-0.349-5.426-0.324-8.005-0.349s-5.299-0.1-8.083 0.15-5.632 0.823-7.454 1.21c-1.821 0.386-2.617 0.586-3.99 0.349-1.372-0.237-3.322-0.91-4.297-1.247z"/>
<path d="m73.107 70.317-0.327 27.758c1.988 0.37 3.976 0.738 6.725 0.344 2.75-0.393 6.262-1.55 8.685-2.239s3.757-0.91 5.31-0.529c1.551 0.382 3.32 1.366 4.981 1.526s3.213-0.505 4.738-0.825c1.524-0.32 3.022-0.295 5.377 0.345s5.567 1.895 8.426 2.362c2.859 0.468 5.363 0.148 7.868-0.172l-0.164-28.644c-2.041 0.689-4.083 1.378-6.983 1.365-2.9-0.012-6.656-0.725-9.828-1.07s-5.758-0.32-8.494-0.345c-2.737-0.024-5.622-0.098-8.576 0.148s-5.976 0.812-7.91 1.194c-1.932 0.381-2.776 0.578-4.233 0.344-1.456-0.234-3.525-0.898-4.56-1.23z"/>
</g>
<path d="m100.82 170.67 0.242 11.537" fill="none" stroke="#000" stroke-width=".26457px"/>
<g stroke-width=".26457" aria-label="LEY13531">
<path d="m93.423 175.59v-2.0036h0.4079v1.6633h1.0142v0.34037z"/>
<path d="m95.136 175.59v-2.0202h1.4979v0.34175h-1.09v0.44786h1.0142v0.34037h-1.0142v0.54984h1.1286v0.34037z"/>
<path d="m97.549 175.59v-0.85024l-0.74-1.17h0.47818l0.47542 0.79926 0.46577-0.79926h0.46991l-0.74276 1.1727v0.84749z"/>
<path d="m93.138 179.11h-0.38723v-1.4593q-0.21222 0.19843-0.50022 0.29352v-0.3514q0.15158-0.0496 0.32935-0.18741 0.17777-0.13918 0.24391-0.32384h0.31419z"/>
<path d="m93.703 178.58 0.37482-0.0455q0.01792 0.14332 0.09646 0.21911 0.07855 0.0758 0.19017 0.0758 0.11989 0 0.20119-0.0909 0.08268-0.091 0.08268-0.24529 0-0.14607-0.07855-0.23151-0.07855-0.0854-0.19155-0.0854-0.07441 0-0.17776 0.0289l0.04272-0.31557q0.1571 4e-3 0.23978-0.0675 0.08268-0.073 0.08268-0.19292 0-0.10198-0.06063-0.16261-0.06063-0.0606-0.16123-0.0606-0.09922 0-0.1695 0.0689t-0.08544 0.20119l-0.35691-0.0606q0.03721-0.18328 0.11162-0.29215 0.07579-0.11024 0.20946-0.17225 0.13505-0.0634 0.30179-0.0634 0.28525 0 0.4575 0.1819 0.14194 0.14883 0.14194 0.33624 0 0.26596-0.29076 0.42443 0.17363 0.0372 0.27698 0.16674 0.10473 0.12954 0.10473 0.31282 0 0.26596-0.1943 0.45337t-0.48369 0.18741q-0.27423 0-0.45475-0.1571-0.18052-0.15847-0.20946-0.4134z"/>
<path d="m95.292 178.59 0.38585-0.04q0.01654 0.13091 0.09784 0.20808 0.0813 0.0758 0.18741 0.0758 0.12127 0 0.20533-0.0978 0.08406-0.0992 0.08406-0.29765 0-0.18603-0.08406-0.27836-0.08268-0.0937-0.21635-0.0937-0.16674 0-0.29903 0.14745l-0.31419-0.0455 0.19844-1.0514h1.0239v0.36242h-0.73035l-0.06063 0.34313q0.12953-0.0648 0.26458-0.0648 0.25769 0 0.43684 0.18742 0.17914 0.18741 0.17914 0.48644 0 0.24942-0.14469 0.4451-0.19706 0.26734-0.54708 0.26734-0.27974 0-0.45613-0.15021-0.17639-0.1502-0.21084-0.40376z"/>
<path d="m96.842 178.58 0.37482-0.0455q0.01792 0.14332 0.09646 0.21911 0.07855 0.0758 0.19017 0.0758 0.11989 0 0.20119-0.0909 0.08268-0.091 0.08268-0.24529 0-0.14607-0.07855-0.23151-0.07855-0.0854-0.19155-0.0854-0.07441 0-0.17776 0.0289l0.04272-0.31557q0.1571 4e-3 0.23978-0.0675 0.08268-0.073 0.08268-0.19292 0-0.10198-0.06063-0.16261-0.06063-0.0606-0.16123-0.0606-0.09922 0-0.1695 0.0689t-0.08544 0.20119l-0.35691-0.0606q0.03721-0.18328 0.11162-0.29215 0.07579-0.11024 0.20946-0.17225 0.13505-0.0634 0.30179-0.0634 0.28525 0 0.4575 0.1819 0.14194 0.14883 0.14194 0.33624 0 0.26596-0.29076 0.42443 0.17363 0.0372 0.27698 0.16674 0.10473 0.12954 0.10473 0.31282 0 0.26596-0.1943 0.45337t-0.48369 0.18741q-0.27423 0-0.45475-0.1571-0.18052-0.15847-0.20946-0.4134z"/>
<path d="m99.416 179.11h-0.38723v-1.4593q-0.21222 0.19843-0.50022 0.29352v-0.3514q0.15158-0.0496 0.32935-0.18741 0.17777-0.13918 0.24391-0.32384h0.31419z"/>
</g>
<g stroke-width=".26457" aria-label="AÑO1961">
<path d="m104.86 175.86h-0.44373l-0.17638-0.45888h-0.80753l-0.16674 0.45888h-0.4327l0.78685-2.0202h0.43133zm-0.75103-0.79925-0.27836-0.74965-0.27285 0.74965z"/>
<path d="m105.08 175.86v-2.0202h0.39687l0.82682 1.3491v-1.3491h0.37896v2.0202h-0.40928l-0.81441-1.3174v1.3174zm0.50712-2.1318h-0.17639q-1e-3 -0.0317-1e-3 -0.0496 0-0.1447 0.0703-0.22187 0.0703-0.0785 0.18052-0.0785 0.0482 0 0.0896 0.011 0.0413 0.01 0.15021 0.0593 0.11024 0.0482 0.17225 0.0482 0.0441 0 0.073-0.0276 0.0303-0.0276 0.0386-0.0923h0.17915q-1e-3 0.18603-0.0703 0.26596-0.0675 0.0799-0.17501 0.0799-0.0469 0-0.0923-0.01-0.0317-8e-3 -0.15847-0.0565-0.12678-0.0482-0.18466-0.0482-0.0441 0-0.0689 0.0276-0.0248 0.0262-0.0262 0.0923z"/>
<path d="m107.03 174.86q0-0.30868 0.0923-0.51814 0.0689-0.15434 0.18741-0.27698 0.11989-0.12265 0.26182-0.1819 0.18879-0.0799 0.43546-0.0799 0.44648 0 0.71382 0.27699 0.26871 0.27698 0.26871 0.77031 0 0.4892-0.26595 0.76619-0.26596 0.2756-0.71107 0.2756-0.45061 0-0.71657-0.27422-0.26596-0.27561-0.26596-0.75792zm0.4203-0.0138q0 0.34313 0.15847 0.52089 0.15847 0.17639 0.40239 0.17639 0.24391 0 0.39962-0.17501 0.1571-0.17638 0.1571-0.52778 0-0.34726-0.15296-0.51814-0.15159-0.17088-0.40376-0.17088-0.25218 0-0.40652 0.17364-0.15434 0.17225-0.15434 0.52089z"/>
<path d="m103.94 179.39h-0.38723v-1.4593q-0.21222 0.19843-0.50022 0.29352v-0.3514q0.15158-0.0496 0.32934-0.18741 0.17777-0.13918 0.24392-0.32384h0.31419z"/>
<path d="m104.53 178.92 0.37482-0.0413q0.0138 0.11437 0.0717 0.16949 0.0579 0.0551 0.15296 0.0551 0.11989 0 0.20395-0.11024 0.0841-0.11024 0.10748-0.4575-0.14607 0.16949-0.36518 0.16949-0.23839 0-0.41203-0.18327-0.17225-0.18466-0.17225-0.47956 0-0.3073 0.1819-0.49471 0.18328-0.18879 0.46577-0.18879 0.3073 0 0.50436 0.2384 0.19706 0.23702 0.19706 0.78134 0 0.55397-0.20533 0.79926-0.20532 0.24529-0.53467 0.24529-0.23702 0-0.38309-0.1254-0.14607-0.12678-0.18741-0.37758zm0.87642-0.84611q0-0.18741-0.0868-0.29077-0.0854-0.10335-0.19843-0.10335-0.10749 0-0.17914 0.0854-0.0703 0.0841-0.0703 0.27698 0 0.19568 0.0772 0.28801 0.0772 0.0909 0.19292 0.0909 0.11162 0 0.18741-0.0882 0.0772-0.0882 0.0772-0.25907z"/>
<path d="m107.4 177.86-0.37482 0.0413q-0.0138-0.11575-0.0717-0.17087-0.0579-0.0551-0.1502-0.0551-0.12265 0-0.20809 0.11024-0.0841 0.11024-0.1061 0.45888 0.14469-0.17087 0.35966-0.17087 0.24253 0 0.41479 0.18465 0.17363 0.18466 0.17363 0.4768 0 0.31005-0.1819 0.49747-0.1819 0.18741-0.46715 0.18741-0.30592 0-0.50298-0.23702-0.19706-0.2384-0.19706-0.77997 0-0.55534 0.20533-0.80063 0.20532-0.24529 0.53329-0.24529 0.23013 0 0.38034 0.12954 0.15158 0.12815 0.19292 0.37344zm-0.8778 0.84473q0 0.18879 0.0868 0.29214 0.0868 0.10198 0.19844 0.10198 0.10749 0 0.17914-0.0841 0.0717-0.0841 0.0717-0.27561 0-0.19706-0.0772-0.288-0.0772-0.0923-0.19292-0.0923-0.11162 0-0.18879 0.0882-0.0772 0.0868-0.0772 0.25769z"/>
<path d="m108.65 179.39h-0.38722v-1.4593q-0.21222 0.19843-0.50022 0.29352v-0.3514q0.15158-0.0496 0.32934-0.18741 0.17777-0.13918 0.24391-0.32384h0.31419z"/>
</g>
<path d="m83.838 188.88 2.722-0.203 0.057-1.505 7.94 5.286-0.511-1.22 5.67-0.691 0.568-0.122-0.34-0.935h2.608l-0.283 1.057h-2.042l2.269 0.04 5.387 0.854-0.34 0.65 1.814-0.812 3.857-2.602 1.814-1.383 0.284 1.505s2.495-0.122 2.495 0.081-4.537 3.456-4.537 3.456l-4.593 2.52-2.836 1.261-0.907-1.951 1.645 0.244-0.851 1.544 1.928-4.025-1.134 2.359-5.841-0.448 0.34 2.684 0.567-2.643-6.408 0.325 0.567 1.342 0.907-1.504-1.587 0.122-0.51-1.708 1.19 3.496-4.14-1.504z" fill="none" stroke="#000" stroke-width=".78667"/>
<path d="m86.872 190.5 5.312 3.359-0.137-0.069" fill="none" stroke-width=".99989"/>
<g stroke-width=".26457" aria-label="DUC">
<path d="m87.811 189.3 0.47259 0.29884q0.15986 0.10108 0.22825 0.17857 0.0917 0.10445 0.11848 0.24001 0.02679 0.13555-0.0092 0.28524-0.0354 0.14881-0.14919 0.32876-0.09998 0.15811-0.21165 0.24769-0.13643 0.10939-0.28021 0.13952-0.10869 0.023-0.24633-0.0127-0.10273-0.0271-0.24599-0.11764l-0.48657-0.30768zm0.12158 0.38014-0.53636 0.84822 0.19306 0.12208q0.10832 0.0685 0.1641 0.0866 0.07284 0.024 0.13765 0.0125 0.06568-0.0111 0.14602-0.0801 0.08089-0.0699 0.1748-0.21842 0.09391-0.1485 0.11796-0.24457 0.02406-0.0961 0.0051-0.17044-0.019-0.0744-0.08156-0.13595-0.04643-0.0465-0.20454-0.14646z"/>
<path d="m89.102 190.12 0.25857 0.1635-0.43859 0.6936q-0.1044 0.1651-0.12572 0.2201-0.03312 0.0891-0.0015 0.17638 0.03307 0.0869 0.14139 0.15543 0.11007 0.0696 0.19415 0.0604 0.08463-0.0101 0.13742-0.0684t0.1489-0.21033l0.44798-0.70845 0.25857 0.1635-0.42533 0.67263q-0.14583 0.23062-0.227 0.31258-0.08118 0.082-0.17938 0.11157-0.09734 0.0302-0.21654 0.01-0.11865-0.0212-0.27065-0.11734-0.18345-0.116-0.25215-0.21814-0.06728-0.10246-0.07978-0.20452-0.01195-0.10294 0.01753-0.18824 0.04427-0.12608 0.18015-0.34098z"/>
<path d="m90.703 192.26 0.20044 0.23802q-0.19023 0.1732-0.38938 0.19034-0.19773 0.0168-0.40389-0.11355-0.25508-0.16129-0.30938-0.43898-0.05375-0.27855 0.13737-0.5808 0.20217-0.31972 0.47885-0.39178 0.27724-0.0729 0.54629 0.0972 0.23498 0.14859 0.29391 0.38029 0.03543 0.13735-0.01811 0.31872l-0.29462-0.1007q0.04026-0.11395 0.0042-0.21745-0.03517-0.10295-0.13825-0.16813-0.14239-0.09-0.29612-0.0442-0.15286 0.0464-0.29758 0.27529-0.15356 0.24284-0.13139 0.40116t0.16194 0.2467q0.10308 0.0652 0.21876 0.0466t0.23694-0.13876z"/>
</g>
<g stroke-width=".26457" aria-label="IN">
<path d="m100.19 193.26v-1.5152h0.30593v1.5152z"/>
<path d="m100.79 193.26v-1.5152h0.29766l0.62013 1.0118v-1.0118h0.28423v1.5152h-0.30697l-0.61082-0.98807v0.98807z"/>
</g>
<g stroke-width=".26457" aria-label="ALTUM ">
<path d="m109.9 193.73-0.28305 0.17504-0.29354-0.22313-0.51511 0.31857 0.0747 0.35849-0.27601 0.1707-0.29503-1.5991 0.27514-0.17016zm-0.79437-0.21356-0.4733-0.36838 0.12169 0.58583z"/>
<path d="m110.05 193.64-0.79043-1.2781 0.26019-0.16091 0.65615 1.061 0.64697-0.40011 0.13427 0.21712z"/>
<path d="m111.3 192.87-0.66213-1.0706-0.38238 0.23648-0.13482-0.218 1.0241-0.63332 0.13482 0.21799-0.3815 0.23594 0.66213 1.0706z"/>
<path d="m111.31 191.08 0.2602-0.16091 0.43163 0.69794q0.10275 0.16614 0.14286 0.20939 0.0656 0.0688 0.15794 0.0785 0.0927 8e-3 0.20164-0.0591 0.11076-0.0685 0.1393-0.14812 0.028-0.0805-1e-3 -0.1535-0.0293-0.073-0.12394-0.22594l-0.44088-0.71289 0.2602-0.16092 0.41859 0.67685q0.14351 0.23207 0.18167 0.34093 0.0382 0.10886 0.0218 0.21012-0.0155 0.10072-0.086 0.19899-0.071 0.0974-0.22397 0.19198-0.18459 0.11416-0.3065 0.13122-0.12157 0.0156-0.21881-0.0178-0.0978-0.0343-0.16157-0.0982-0.094-0.095-0.22772-0.31123z"/>
<path d="m113.4 191.57-0.79695-1.2886 0.3894-0.24082 0.77745 0.73442-0.31244-1.022 0.39029-0.24137 0.79695 1.2886-0.24173 0.1495-0.62734-1.0144 0.37154 1.1726-0.25052 0.15494-0.88226-0.85675 0.62734 1.0144z"/>
</g>
<path d="m108.61 194.53 7.05-4.36 0.081-0.044" fill="none" stroke-width=".99989"/>
</g>
</svg>
