<?xml version="1.0" encoding="UTF-8" standalone="no"?>
<svg
   xmlns:dc="http://purl.org/dc/elements/1.1/"
   xmlns:cc="http://creativecommons.org/ns#"
   xmlns:rdf="http://www.w3.org/1999/02/22-rdf-syntax-ns#"
   xmlns:svg="http://www.w3.org/2000/svg"
   xmlns="http://www.w3.org/2000/svg"
   xmlns:xlink="http://www.w3.org/1999/xlink"
   xmlns:sodipodi="http://sodipodi.sourceforge.net/DTD/sodipodi-0.dtd"
   xmlns:inkscape="http://www.inkscape.org/namespaces/inkscape"
   width="210mm"
   height="297mm"
   viewBox="0 0 210 297"
   version="1.1"
   id="svg8"
   inkscape:version="1.0.2-2 (e86c870879, 2021-01-15)"
   sodipodi:docname="UNT.svg">
  <defs
     id="defs2">
    <inkscape:path-effect
       effect="bspline"
       id="path-effect1555"
       is_visible="true"
       lpeversion="1"
       weight="33.333333"
       steps="2"
       helper_size="0"
       apply_no_weight="true"
       apply_with_weight="true"
       only_selected="false" />
    <inkscape:path-effect
       effect="bspline"
       id="path-effect1064"
       is_visible="true"
       lpeversion="1"
       weight="33.333333"
       steps="2"
       helper_size="0"
       apply_no_weight="true"
       apply_with_weight="true"
       only_selected="false" />
    <inkscape:path-effect
       effect="bspline"
       id="path-effect2558"
       is_visible="true"
       lpeversion="1"
       weight="33.333333"
       steps="2"
       helper_size="0"
       apply_no_weight="true"
       apply_with_weight="true"
       only_selected="false" />
    <inkscape:path-effect
       effect="bspline"
       id="path-effect2537"
       is_visible="true"
       lpeversion="1"
       weight="33.333333"
       steps="2"
       helper_size="0"
       apply_no_weight="true"
       apply_with_weight="true"
       only_selected="false" />
    <inkscape:path-effect
       effect="bspline"
       id="path-effect2513"
       is_visible="true"
       lpeversion="1"
       weight="33.333333"
       steps="2"
       helper_size="0"
       apply_no_weight="true"
       apply_with_weight="true"
       only_selected="false" />
    <inkscape:path-effect
       effect="bspline"
       id="path-effect2489"
       is_visible="true"
       lpeversion="1"
       weight="33.333333"
       steps="2"
       helper_size="0"
       apply_no_weight="true"
       apply_with_weight="true"
       only_selected="false" />
    <inkscape:path-effect
       effect="bspline"
       id="path-effect2466"
       is_visible="true"
       lpeversion="1"
       weight="33.333333"
       steps="2"
       helper_size="0"
       apply_no_weight="true"
       apply_with_weight="true"
       only_selected="false" />
    <inkscape:path-effect
       effect="bspline"
       id="path-effect2445"
       is_visible="true"
       lpeversion="1"
       weight="33.333333"
       steps="2"
       helper_size="0"
       apply_no_weight="true"
       apply_with_weight="true"
       only_selected="false" />
    <inkscape:path-effect
       effect="bspline"
       id="path-effect2422"
       is_visible="true"
       lpeversion="1"
       weight="33.333333"
       steps="2"
       helper_size="0"
       apply_no_weight="true"
       apply_with_weight="true"
       only_selected="false" />
    <inkscape:path-effect
       effect="spiro"
       id="path-effect2301"
       is_visible="true"
       lpeversion="1" />
    <inkscape:path-effect
       effect="spiro"
       id="path-effect2293"
       is_visible="true"
       lpeversion="1" />
    <rect
       x="14.532592"
       y="432.68737"
       width="273.92565"
       height="19.193989"
       id="rect2269" />
    <inkscape:path-effect
       effect="spiro"
       id="path-effect2228"
       is_visible="true"
       lpeversion="1" />
    <style
       id="style833">.cls-1{fill:#004077;fill-rule:evenodd;}.cls-2{fill:#fff;}.cls-3{fill:none;stroke:#fff;stroke-miterlimit:2.61;stroke-width:0.94px;}</style>
    <clipPath
       clipPathUnits="userSpaceOnUse"
       id="clipPath1621">
      <path
         style="fill:#000000;fill-opacity:1;stroke:none;stroke-width:1;stroke-linejoin:round;stroke-miterlimit:4;stroke-dasharray:none;stroke-opacity:1;paint-order:fill markers stroke"
         d="M 250.88039,1.496723 H 382.75756 V 79.447406 H 250.88039 Z"
         id="path1623" />
    </clipPath>
  </defs>
  <sodipodi:namedview
     id="base"
     pagecolor="#ffffff"
     bordercolor="#666666"
     borderopacity="1.0"
     inkscape:pageopacity="0.0"
     inkscape:pageshadow="2"
     inkscape:zoom="1.3096694"
     inkscape:cx="428.72861"
     inkscape:cy="473.89347"
     inkscape:document-units="mm"
     inkscape:current-layer="g915"
     inkscape:document-rotation="0"
     showgrid="false"
     showguides="true"
     inkscape:guide-bbox="true"
     inkscape:window-width="1858"
     inkscape:window-height="1057"
     inkscape:window-x="-8"
     inkscape:window-y="-8"
     inkscape:window-maximized="1" />
  <metadata
     id="metadata5">
    <rdf:RDF>
      <cc:Work
         rdf:about="">
        <dc:format>image/svg+xml</dc:format>
        <dc:type
           rdf:resource="http://purl.org/dc/dcmitype/StillImage" />
        <dc:title></dc:title>
      </cc:Work>
    </rdf:RDF>
  </metadata>
  <g
     inkscape:label="Capa 1"
     inkscape:groupmode="layer"
     id="layer1">
    <g
       id="g1577"
       transform="translate(44.009087,-44.420376)" />
    <g
       id="g915">
      <g
         id="g2020"
         transform="matrix(1.1146553,0,0,1.135438,-646.6205,-583.00199)"
         style="stroke-width:1;stroke-miterlimit:4;stroke-dasharray:none">
        <path
           id="path2143-0-8-4"
           style="fill:#000000;fill-opacity:1;stroke:none;stroke-width:0.995767;stroke-linejoin:round;stroke-miterlimit:4;stroke-dasharray:none;stroke-opacity:1;paint-order:fill markers stroke"
           d="m 618.39669,644.031 c 0.27194,1.4132 0.57381,2.81105 0.90674,4.19271 h 112.39746 c 0.331,-1.37973 0.63651,-2.77798 0.91895,-4.19271 z m 2.04933,8.47449 c 0.41405,1.41382 0.86099,2.81128 1.33921,4.19314 h 107.52248 c 0.4515,-1.37999 0.8761,-2.77813 1.27656,-4.19314 z m 2.90716,8.39202 c 0.56786,1.41379 1.16927,2.81135 1.80431,4.19317 h 101.01332 c 0.58158,-1.38076 1.13646,-2.77806 1.66474,-4.19317 z m 3.85618,8.38542 c 0.73478,1.41364 1.50489,2.81111 2.30963,4.19315 h 92.70296 c 0.72088,-1.38153 1.4151,-2.7788 2.08091,-4.19315 z m 4.88719,8.3863 c 0.91427,1.4131 1.86553,2.81016 2.85214,4.1927 h 82.45381 c 0.86749,-1.38299 1.70869,-2.77949 2.52,-4.1927 z m 5.34259,7.54705 c 1.08512,1.41236 2.20809,2.80977 3.36716,4.19313 h 71.49811 c 1.0023,-1.38495 1.97897,-2.78143 2.92498,-4.19313 z m 7.40366,8.80525 c 1.29249,1.41147 2.62724,2.80793 3.99475,4.19313 h 56.60775 c 1.15678,-1.38756 2.2889,-2.78388 3.39059,-4.1927 z m 8.50497,8.59533 c 1.43074,1.34685 2.89219,2.68383 4.39106,4.01012 0.069,0.0611 0.14435,0.12191 0.21496,0.18303 h 38.53014 c 1.91511,-1.37805 3.64523,-2.78534 5.07973,-4.19315 z m 8.44334,7.04385 c 2.17814,1.42316 4.69678,2.82608 7.40823,4.18521 h 15.74814 c 2.43966,-1.30626 4.9089,-2.71371 7.26103,-4.18477 z m 7.42299,4.19271 c 2.61199,1.30874 5.40575,2.57243 8.2457,3.77682 2.32001,-1.10863 4.87675,-2.38655 7.47393,-3.77682 z"
           sodipodi:nodetypes="ccccccccccccccccccccccccccccccccccccsccccccccccccc" />
      </g>
      <path
         id="path2143"
         style="fill:none;fill-opacity:1;stroke:#000000;stroke-width:1.13107;stroke-linejoin:round;stroke-miterlimit:4;stroke-dasharray:none;stroke-opacity:1;paint-order:fill markers stroke"
         d="m 188.34908,140.98353 c -0.57294,38.95712 -15.53001,66.82799 -38.42669,92.22495 -10.59065,11.74713 -42.4411,24.13258 -42.4411,24.13258 0,0 -34.011984,-12.27493 -45.138495,-24.6411 C 38.858275,206.5989 24.387385,177.22851 24.974762,137.29016 25.380511,109.70144 43.242044,75.35358 61.707125,56.339367 84.306897,33.067524 108.29577,28.043658 108.29577,28.043658 c 0,0 24.2763,5.366851 45.73786,28.605941 18.54072,20.07633 34.73369,55.896371 34.31545,84.333931 z"
         sodipodi:nodetypes="sacasscss" />
      <text
         xml:space="preserve"
         id="text2267"
         style="font-size:9.79176px;line-height:1.25;font-family:'Microsoft YaHei UI';-inkscape-font-specification:'Microsoft YaHei UI';white-space:pre;stroke-width:1;stroke-miterlimit:4;stroke-dasharray:none"
         transform="matrix(0.99400408,0,0,0.98038193,0.68490366,1.212138)"
         x="-3.8330636"
         y="-1.2621644"><textPath
           xlink:href="#path1062"
           id="textPath1066"
           style="font-style:normal;font-variant:normal;font-weight:bold;font-stretch:normal;font-size:9.79176px;font-family:'Microsoft YaHei UI';-inkscape-font-specification:'Microsoft YaHei UI Bold';stroke-width:1;stroke-miterlimit:4;stroke-dasharray:none">  UNIVERSIDAD NACIONAL DE TUMBES</textPath></text>
      <path
         style="fill:none;stroke:none;stroke-width:1.13107;stroke-linecap:butt;stroke-linejoin:miter;stroke-miterlimit:4;stroke-dasharray:none;stroke-opacity:1"
         d="m 80.130957,247.44771 c 0,0 17.055197,4.67372 26.194783,3.75414 15.93549,-1.60336 25.74234,-9.16246 25.74234,-9.16246 l 0.0118,0.10816"
         id="path2393"
         sodipodi:nodetypes="cscc" />
      <text
         xml:space="preserve"
         style="font-size:14.1111px;line-height:1.25;font-family:'Microsoft YaHei UI';-inkscape-font-specification:'Microsoft YaHei UI';letter-spacing:0.931333px;stroke-width:1;stroke-miterlimit:4;stroke-dasharray:none"
         id="text2397"
         y="-2.7101257"
         transform="translate(6.4926999,-2.7407106)"><textPath
           xlink:href="#path2393"
           id="textPath2411"><tspan
             id="tspan2395"
             style="font-style:normal;font-variant:normal;font-weight:normal;font-stretch:normal;font-size:14.1111px;font-family:Arial;-inkscape-font-specification:Arial;stroke-width:1;stroke-miterlimit:4;stroke-dasharray:none"
             dy="0.039999999"
             dx="0">PERÚ</tspan></textPath></text>
      <path
         id="path2143-2"
         style="fill:none;fill-opacity:1;stroke:#000000;stroke-width:1.13107;stroke-linejoin:round;stroke-miterlimit:4;stroke-dasharray:none;stroke-opacity:1;paint-order:fill markers stroke"
         d="m 171.94567,141.324 c -0.45672,31.19512 -13.73331,51.12537 -30.21442,70.78631 -8.76203,10.45257 -34.24996,22.38761 -34.24996,22.38761 0,0 -25.554842,-11.47456 -34.31162,-21.82011 -17.378278,-20.53128 -31.927331,-42.33046 -31.459108,-74.31129 0.323463,-22.09181 14.5619,-49.596057 29.281512,-64.821777 18.015559,-18.63505 37.138506,-22.657938 37.138506,-22.657938 0,0 19.35201,4.297537 36.46026,22.906351 14.77989,16.076228 27.68823,44.759324 27.35483,67.530844 z"
         sodipodi:nodetypes="sacasscss" />
      <path
         style="fill:none;stroke:none;stroke-width:1.20208;stroke-linecap:butt;stroke-linejoin:miter;stroke-miterlimit:4;stroke-dasharray:none;stroke-opacity:1"
         d="M 41.464559,116.48168 C 44.603831,105.87148 47.7431,95.261284 59.249573,80.936479 70.756047,66.611674 90.629612,48.572509 109.56104,48.903111 c 18.93143,0.330602 36.91986,19.030589 47.26969,33.316478 10.34983,14.285889 13.06114,24.157301 15.77252,34.028981"
         id="path1062"
         inkscape:path-effect="#path-effect1064"
         inkscape:original-d="m 41.464559,116.48168 c 3.13966,-10.61009 6.278932,-21.22028 9.417871,-31.830795 19.873915,-18.038883 39.747484,-36.078044 59.62101,-54.117779 17.98905,18.700584 35.97748,37.400571 53.96564,56.100326 2.71172,9.871981 5.42303,19.743388 8.13417,29.615138"
         sodipodi:nodetypes="ccccc" />
      <path
         id="path2143-0"
         style="fill:none;fill-opacity:1;stroke:#000000;stroke-width:2.71458;stroke-linejoin:round;stroke-miterlimit:4;stroke-dasharray:none;stroke-opacity:1;paint-order:fill markers stroke"
         d="m 192.5387,140.63966 c -0.60185,40.28976 -16.31332,69.11403 -40.36488,95.37976 -11.12482,12.14897 -44.58176,24.95811 -44.58176,24.95811 0,0 -35.727496,-12.69482 -47.415215,-25.48401 C 35.507804,208.49958 20.307017,178.12447 20.924025,136.81993 21.350242,108.28748 40.112687,72.764634 59.509117,53.100002 83.248792,29.03208 108.44764,23.836349 108.44764,23.836349 c 0,0 25.50073,5.550451 48.04478,29.584486 19.4759,20.7631 36.48561,57.808465 36.04628,87.218825 z"
         sodipodi:nodetypes="sacasscss" />
      <path
         style="fill:#000000;fill-opacity:1;stroke:none;stroke-width:1.13107;stroke-linejoin:round;stroke-miterlimit:4;stroke-dasharray:none;stroke-opacity:1;paint-order:fill markers stroke"
         id="path1088-9"
         sodipodi:type="arc"
         sodipodi:cx="105.62641"
         sodipodi:cy="148.01341"
         sodipodi:rx="22.640043"
         sodipodi:ry="18.431934"
         sodipodi:start="0"
         sodipodi:end="3.1415927"
         sodipodi:open="true"
         sodipodi:arc-type="arc"
         d="m 128.26645,148.01341 a 22.640043,18.431934 0 0 1 -11.32002,15.96253 22.640043,18.431934 0 0 1 -22.640041,0 22.640043,18.431934 0 0 1 -11.320021,-15.96253" />
      <g
         id="g1287"
         transform="matrix(1.558725,0,0,1.3786243,263.24949,28.518203)"
         style="stroke-width:0.771584;stroke-miterlimit:4;stroke-dasharray:none">
        <path
           style="fill:#000000;fill-opacity:1;stroke:none;stroke-width:0.771584;stroke-linejoin:round;stroke-miterlimit:4;stroke-dasharray:none;stroke-opacity:1;paint-order:fill markers stroke"
           id="path1088-9-4"
           sodipodi:type="arc"
           sodipodi:cx="-101.22244"
           sodipodi:cy="-85.67807"
           sodipodi:rx="14.258391"
           sodipodi:ry="15.560842"
           sodipodi:start="0"
           sodipodi:end="3.1415927"
           sodipodi:open="true"
           sodipodi:arc-type="arc"
           transform="scale(1,-1)"
           d="m -86.964051,-85.67807 a 14.258391,15.560842 0 0 1 -7.129196,13.476084 14.258391,15.560842 0 0 1 -14.258393,0 14.258391,15.560842 0 0 1 -7.12919,-13.476084" />
        <g
           id="g1276"
           transform="matrix(0.91468877,0,0,1,-163.11719,-64.749936)"
           style="stroke-width:0.806765;stroke-miterlimit:4;stroke-dasharray:none">
          <rect
             style="fill:#000000;fill-opacity:1;stroke:none;stroke-width:0.806765;stroke-linejoin:round;stroke-miterlimit:4;stroke-dasharray:none;stroke-opacity:1;paint-order:fill markers stroke"
             id="rect1130"
             width="17.877285"
             height="1.3784817"
             x="39.258537"
             y="149.00233" />
          <rect
             style="fill:#000000;fill-opacity:1;stroke:none;stroke-width:0.816897;stroke-linejoin:round;stroke-miterlimit:4;stroke-dasharray:none;stroke-opacity:1;paint-order:fill markers stroke"
             id="rect1130-2"
             width="15.490873"
             height="1.6310505"
             x="143.43237"
             y="52.687252"
             transform="matrix(0.67225527,0.74031942,-0.87041788,0.49231364,0,0)" />
          <rect
             style="fill:#000000;fill-opacity:1;stroke:none;stroke-width:0.815351;stroke-linejoin:round;stroke-miterlimit:4;stroke-dasharray:none;stroke-opacity:1;paint-order:fill markers stroke"
             id="rect1130-2-4"
             width="16.999855"
             height="1.4806515"
             x="119.90391"
             y="111.09875"
             transform="matrix(0.90835265,0.41820506,-0.59440407,0.80416652,0,0)" />
          <rect
             style="fill:#000000;fill-opacity:1;stroke:none;stroke-width:0.806765;stroke-linejoin:round;stroke-miterlimit:4;stroke-dasharray:none;stroke-opacity:1;paint-order:fill markers stroke"
             id="rect1130-2-0"
             width="14.10918"
             height="1.7466308"
             x="127.30625"
             y="-68.273262"
             transform="matrix(0.00204846,0.9999979,-0.99999919,0.00127588,0,0)" />
          <rect
             style="fill:#000000;fill-opacity:1;stroke:none;stroke-width:0.816897;stroke-linejoin:round;stroke-miterlimit:4;stroke-dasharray:none;stroke-opacity:1;paint-order:fill markers stroke"
             id="rect1130-2-08"
             width="15.490873"
             height="1.6310505"
             x="75.118858"
             y="155.41402"
             transform="matrix(-0.67225527,0.74031942,0.87041788,0.49231364,0,0)" />
          <rect
             style="fill:#000000;fill-opacity:1;stroke:none;stroke-width:0.815351;stroke-linejoin:round;stroke-miterlimit:4;stroke-dasharray:none;stroke-opacity:1;paint-order:fill markers stroke"
             id="rect1130-2-4-4"
             width="16.999855"
             height="1.4806515"
             x="8.8234148"
             y="168.86592"
             transform="matrix(-0.90835265,0.41820506,0.5944041,0.8041665,0,0)" />
          <rect
             style="fill:#000000;fill-opacity:1;stroke:none;stroke-width:0.806765;stroke-linejoin:round;stroke-miterlimit:4;stroke-dasharray:none;stroke-opacity:1;paint-order:fill markers stroke"
             id="rect1130-4"
             width="17.877285"
             height="1.3784817"
             x="78.199265"
             y="149.00233" />
        </g>
      </g>
      <path
         style="fill:none;stroke:#000000;stroke-width:1.13107;stroke-linecap:butt;stroke-linejoin:miter;stroke-miterlimit:4;stroke-dasharray:none;stroke-opacity:1"
         d="m 77.010373,106.95259 c 3.610546,-1.87469 7.220703,-3.74971 10.830482,-5.62508 2.859815,-0.0419 8.721892,-0.25376 8.721892,-0.25376 l 0.239613,4.69461 c 0,0 6.67758,0.76163 10.0158,1.14194 3.45087,-0.52131 6.90121,-1.04291 10.35126,-1.56487 -0.0316,-1.43768 0.19168,-4.1448 0.19168,-4.1448 l 4.40888,-0.12686 c 0,0 2.84378,0.42327 4.26509,0.63441 3.57867,1.70622 10.78256,5.32902 10.78256,5.32902 l -2.87535,-5.32902 3.64211,-2.622219 c 0,0 -6.77266,-3.07301 -10.15957,-4.610028 -1.67693,-0.479007 -3.35419,-0.958317 -5.03185,-1.437984 -2.73126,-0.08428 -8.48229,-0.338359 -8.48229,-0.338359 l 3.01911,3.172044 c 0,0 -6.64485,0.789824 -9.96786,1.184222 -3.22646,-0.436703 -9.77619,-1.184222 -9.77619,-1.184222 l 2.635734,-3.12974 -9.48865,-0.04236 -13.993365,5.540488 3.977566,2.875978 z"
         id="path2052" />
      <path
         style="fill:none;stroke:#000000;stroke-width:1.13107;stroke-linecap:butt;stroke-linejoin:miter;stroke-miterlimit:4;stroke-dasharray:none;stroke-opacity:1"
         d="m 96.562747,101.07375 -0.340292,-6.466333 -6.641714,0.35887 -10.369215,4.246685 1.999291,1.525218 -1.592655,2.90091 5.659016,-2.84109 4.981286,-1.495318 6.09954,-0.418679 z"
         id="path2054" />
      <path
         style="fill:none;stroke:#000000;stroke-width:1.13107;stroke-linecap:butt;stroke-linejoin:miter;stroke-miterlimit:4;stroke-dasharray:none;stroke-opacity:1"
         d="m 96.358004,98.884013 10.651836,0.561423 10.0158,-1.057352 -0.11982,4.313976 -9.5845,1.77634 -10.42314,-1.58601 z"
         id="path2056" />
      <path
         style="fill:none;stroke:#000000;stroke-width:1.13107;stroke-linecap:butt;stroke-linejoin:miter;stroke-miterlimit:4;stroke-dasharray:none;stroke-opacity:1"
         d="m 117.1303,94.906477 -0.10466,3.481607 6.13644,0.705269 5.08294,1.884087 5.6929,2.60185 -0.88104,-2.12335 1.99929,-1.34578 -13.04623,-5.383123 z"
         id="path2058" />
      <path
         style="fill:none;stroke:#000000;stroke-width:0.774751;stroke-linecap:butt;stroke-linejoin:miter;stroke-miterlimit:4;stroke-dasharray:none;stroke-opacity:1"
         d="m 97.050446,88.376918 0.336513,-2.122739 0.420638,1.623277 1.177793,-1.061373 0.33651,0.624335 2.18733,-2.871948 0.33651,1.997881 2.1032,-1.935446 -0.16835,-0.624337 1.09366,-0.06243 -0.16817,0.87407 -0.33652,0.624338 v 0.811635 l -0.5889,3.558717 0.84129,-0.06246 0.25237,1.186242 2.86036,-0.998936 2.52384,1.061372 v -1.560845 l 0.84129,0.249731 -0.50478,-3.995745 0.5889,-0.499468 -1.34606,-0.749203 0.84129,-0.81164 3.0286,2.87195 -0.50476,-2.185177 1.93494,2.372478 1.00952,1.311111 0.16818,-1.123809 1.00953,0.749206 0.33651,-1.31111 0.84138,1.748138 1.68257,0.686769 -0.75715,-2.247609 1.43017,-3.121685 0.50477,-11.238062 -2.27145,-4.370358 -3.11274,-0.06244 -1.76669,1.873011 1.00954,3.05925 -1.5143,2.247614 -1.17779,0.312167 -1.85082,-1.435975 -1.09366,-2.497346 -0.25238,-1.061373 1.00953,-1.18624 -0.25238,-1.435975 -1.43017,-0.749203 h -1.93494 l -1.43019,1.311106 -1.17779,0.686771 -1.59843,0.312168 0.75715,0.499469 -0.58887,0.686771 2.52381,-0.561902 0.9254,1.997877 -1.09365,0.437035 -0.50477,1.623277 -1.34604,1.18624 -1.26192,-0.187302 -2.18733,-1.810577 V 72.14414 l 0.9254,-1.248673 0.50478,-0.936506 V 69.08489 l -3.365123,-1.997878 -1.850818,1.186241 -1.009524,1.186239 -0.420638,1.623275 -0.925418,1.935444 -0.168177,1.997879 -0.336513,2.247612 0.673028,2.684648 0.252371,1.68571 0.504781,1.810576 0.504763,2.434914 v 1.873012 l -0.504763,1.435974 z"
         id="path2074" />
      <text
         xml:space="preserve"
         style="font-size:2.39411px;line-height:1.25;font-family:'Microsoft YaHei UI';-inkscape-font-specification:'Microsoft YaHei UI';stroke-width:0.299263"
         x="49.584576"
         y="122.64784"
         id="text2078"
         transform="matrix(1.0063462,-0.26282239,0.28796271,0.91848805,0,0)"
         inkscape:transform-center-x="-0.52916666"
         inkscape:transform-center-y="0.92604166"><tspan
           sodipodi:role="line"
           id="tspan2076"
           x="49.584576"
           y="122.64784"
           style="font-style:normal;font-variant:normal;font-weight:normal;font-stretch:normal;font-size:2.39411px;font-family:Arial;-inkscape-font-specification:Arial;stroke-width:0.299263">DUC</tspan></text>
      <text
         xml:space="preserve"
         style="font-size:2.39411px;line-height:1.25;font-family:'Microsoft YaHei UI';-inkscape-font-specification:'Microsoft YaHei UI';stroke-width:0.299263"
         x="98.927963"
         y="109.37588"
         id="text2078-2"
         transform="matrix(1.0465672,-0.0171291,0.01876759,0.95519763,0,0)"
         inkscape:transform-center-x="-0.26505101"
         inkscape:transform-center-y="1.0287878"><tspan
           sodipodi:role="line"
           id="tspan2076-5"
           x="98.927963"
           y="109.37588"
           style="font-style:normal;font-variant:normal;font-weight:normal;font-stretch:normal;font-size:2.39411px;font-family:Arial;-inkscape-font-specification:Arial;stroke-width:0.299263">IN</tspan></text>
      <text
         xml:space="preserve"
         style="font-size:2.39411px;line-height:1.25;font-family:'Microsoft YaHei UI';-inkscape-font-specification:'Microsoft YaHei UI';stroke-width:0.299263"
         x="148.27818"
         y="47.430428"
         id="text2106"
         transform="matrix(0.96052098,0.37968001,-0.41599835,0.87666357,0,0)"><tspan
           sodipodi:role="line"
           id="tspan2104"
           x="148.27818"
           y="47.430428"
           style="font-style:normal;font-variant:normal;font-weight:normal;font-stretch:normal;font-size:2.39411px;font-family:Arial;-inkscape-font-specification:Arial;stroke-width:0.299263">ALTUM</tspan></text>
    </g>
  </g>
</svg>
